<svg xmlns="http://www.w3.org/2000/svg" xmlns:xlink="http://www.w3.org/1999/xlink" width="552" height="193pt" viewBox="0 0 497 231"><g id="graph0" class="graph" transform="scale(0.833333 0.833333) rotate(0) translate(4 227)"><polygon fill="#fff" stroke="none" points="-4 4 -4 -227 493 -227 493 4 -4 4"/><g id="clust1" class="cluster"><title>clusterA</title><polygon fill="none" stroke="none" points="8 -81 8 -215 78 -215 78 -81 8 -81"/></g><g id="clust5" class="cluster"><title>clusterB</title><polygon fill="none" stroke="none" points="152 -81 152 -215 222 -215 222 -81 152 -81"/></g><g id="clust10" class="cluster"><title>clusterC</title><polygon fill="none" stroke="none" points="339 -8 339 -215 481 -215 481 -8 339 -8"/></g><g id="node1" class="node"><title>A_u1</title><polygon fill="none" stroke="#000" points="43 -171 70 -198 16 -198 43 -171"/><text x="43" y="-184.8" font-family="Times,serif" font-size="14" text-anchor="middle">x</text></g><g id="node2" class="node"><title>A_left</title><polygon fill="none" stroke="#000" points="16 -89.5 16 -133.5 70 -133.5 70 -89.5 16 -89.5"/><polyline fill="none" stroke="#000" points="16 -111.5 69.214 -111.5"/><text x="42.607" y="-96.3" font-family="Times,serif" font-size="14" text-anchor="middle">a</text></g><g id="edge1" class="edge"><title>A_u1:s-&gt;A_left:a:n</title><path fill="none" stroke="#000" d="M43,-160.872C43,-151.841 43,-146.462 43,-134"/><polygon fill="#000" stroke="#000" points="39.5 -161 43 -171 46.5 -161 39.5 -161"/></g><g id="node3" class="node"><title>temp0</title><ellipse cx="115" cy="-189" fill="none" stroke="none" rx="1.8" ry="1.8"/></g><g id="node4" class="node"><title>temp1</title><text x="115" y="-107.3" font-family="Times,serif" font-size="14" text-anchor="middle">+</text></g><g id="edge2" class="edge"><title>temp0-&gt;temp1</title></g><g id="node5" class="node"><title>A_w1</title><polygon fill="none" stroke="#000" points="187 -171 214 -198 160 -198 187 -171"/><text x="187" y="-184.8" font-family="Times,serif" font-size="14" text-anchor="middle">y</text></g><g id="node6" class="node"><title>A_right</title><polygon fill="none" stroke="#000" points="160 -89.5 160 -133.5 214 -133.5 214 -89.5 160 -89.5"/><polyline fill="none" stroke="#000" points="160 -111.5 213.214 -111.5"/><text x="186.607" y="-96.3" font-family="Times,serif" font-size="14" text-anchor="middle">a</text></g><g id="edge3" class="edge"><title>A_w1:s-&gt;A_right:a:n</title><path fill="none" stroke="#000" d="M187,-160.872C187,-151.841 187,-146.462 187,-134"/><polygon fill="#000" stroke="#000" points="183.5 -161 187 -171 190.5 -161 183.5 -161"/></g><g id="node7" class="node"><title>temp2a</title><ellipse cx="280" cy="-189" fill="none" stroke="none" rx="1.8" ry="1.8"/></g><g id="node8" class="node"><title>temp2b</title><ellipse cx="237" cy="-111.5" fill="none" stroke="none" rx="1.8" ry="1.8"/></g><g id="edge4" class="edge"><title>temp2a-&gt;temp2b</title></g><g id="node9" class="node"><title>temp2c</title><ellipse cx="329" cy="-111.5" fill="none" stroke="none" rx="1.8" ry="1.8"/></g><g id="edge5" class="edge"><title>temp2a-&gt;temp2c</title></g><g id="edge6" class="edge"><title>temp2b-&gt;temp2c</title><path fill="none" stroke="#000" d="M238.922,-111.5C248.837,-111.5 294.605,-111.5 316.827,-111.5"/><polygon fill="#000" stroke="#000" points="317.089 -115 327.089 -111.5 317.089 -108 317.089 -115"/><text x="283" y="-117.3" fill="#fffffe" font-family="Times,serif" font-size="14" text-anchor="middle">wwwwwww</text></g><g id="node10" class="node"><title>A_u2</title><polygon fill="none" stroke="#000" points="374 -171 401 -198 347 -198 374 -171"/></g><g id="node12" class="node"><title>A_result</title><polygon fill="none" stroke="#000" points="388 -89.5 388 -133.5 442 -133.5 442 -89.5 388 -89.5"/><polyline fill="none" stroke="#000" points="388 -111.5 415 -111.5"/><text x="401.5" y="-96.3" font-family="Times,serif" font-size="14" text-anchor="middle">x</text><polyline fill="none" stroke="#000" points="415 -89.5 415 -133.5"/><polyline fill="none" stroke="#000" points="415 -111.5 442 -111.5"/><text x="428.5" y="-96.3" font-family="Times,serif" font-size="14" text-anchor="middle">y</text></g><g id="edge7" class="edge"><title>A_u2:s-&gt;A_result:x:n</title><path fill="none" stroke="#000" d="M376.889,-161.171C383.855,-151.159 401,-150.222 401,-134"/><polygon fill="#000" stroke="#000" points="373.463 -160.419 374 -171 380.178 -162.393 373.463 -160.419"/></g><g id="node11" class="node"><title>A_v2</title><polygon fill="none" stroke="#000" points="446 -171 473 -198 419 -198 446 -171"/></g><g id="edge8" class="edge"><title>A_v2:s-&gt;A_result:y:n</title><path fill="none" stroke="#000" d="M443.778,-160.96C439.169,-151.65 429,-147.997 429,-134"/><polygon fill="#000" stroke="#000" points="440.421 -161.993 446 -171 447.256 -160.48 440.421 -161.993"/></g><g id="node13" class="node"><title>A_ap</title><text x="415" y="-29.8" font-family="Times,serif" font-size="14" text-anchor="middle">a&apos;</text></g><g id="edge9" class="edge"><title>A_result:s-&gt;A_ap:n</title><path fill="none" stroke="#000" d="M415,-78.2344C415,-69.4896 415,-64.1667 415,-52"/><polygon fill="#000" stroke="#000" points="411.5 -78.5 415 -88.5 418.5 -78.5 411.5 -78.5"/></g></g></svg>