<svg xmlns="http://www.w3.org/2000/svg" xmlns:xlink="http://www.w3.org/1999/xlink" width="592pt" height="200pt" viewBox="0 0 710 240"><g id="graph0" class="graph" transform="scale(0.833333 0.833333) rotate(0) translate(4 236)"><polygon fill="#fff" stroke="none" points="-4 4 -4 -236 706 -236 706 4 -4 4"/><g id="clust1" class="cluster"><title>clusterA</title><polygon fill="none" stroke="none" points="8 -90 8 -224 150 -224 150 -90 8 -90"/></g><g id="clust5" class="cluster"><title>clusterB</title><polygon fill="none" stroke="none" points="220 -90 220 -224 362 -224 362 -90 220 -90"/></g><g id="clust10" class="cluster"><title>clusterC</title><polygon fill="none" stroke="none" points="480 -8 480 -224 694 -224 694 -8 480 -8"/></g><g id="node1" class="node"><title>A_u1</title><polygon fill="none" stroke="#000" points="43 -180 70 -207 16 -207 43 -180"/><text x="43" y="-193.8" font-family="Times,serif" font-size="14" text-anchor="middle">u</text></g><g id="node3" class="node"><title>A_left</title><polygon fill="none" stroke="#000" points="58 -98.5 58 -142.5 112 -142.5 112 -98.5 58 -98.5"/><polyline fill="none" stroke="#000" points="58 -120.5 84.214 -120.5"/><text x="71.107" y="-105.3" font-family="Times,serif" font-size="14" text-anchor="middle">a</text><polyline fill="none" stroke="#000" points="84.214 -98.5 84.214 -142.5"/><polyline fill="none" stroke="#000" points="84.214 -120.5 111.214 -120.5"/><text x="97.714" y="-105.3" font-family="Times,serif" font-size="14" text-anchor="middle">b</text></g><g id="edge1" class="edge"><title>A_u1:s-&gt;A_left:a:n</title><path fill="none" stroke="#000" d="M45.7871,-170.392C52.8694,-160.087 71,-159.595 71,-143"/><polygon fill="#000" stroke="#000" points="42.425 -169.421 43 -180 49.147 -171.371 42.425 -169.421"/></g><g id="node2" class="node"><title>A_v1</title><polygon fill="none" stroke="#000" points="115 -180 142 -207 88 -207 115 -180"/><text x="115" y="-193.8" font-family="Times,serif" font-size="14" text-anchor="middle">v</text></g><g id="edge2" class="edge"><title>A_v1:s-&gt;A_left:b:n</title><path fill="none" stroke="#000" d="M112.778,-169.96C108.169,-160.65 98,-156.997 98,-143"/><polygon fill="#000" stroke="#000" points="109.421 -170.993 115 -180 116.256 -169.48 109.421 -170.993"/></g><g id="node4" class="node"><title>temp0</title><ellipse cx="185" cy="-198" fill="none" stroke="none" rx="1.8" ry="1.8"/></g><g id="node5" class="node"><title>temp1</title><text x="185" y="-116.3" font-family="Times,serif" font-size="14" text-anchor="middle">+</text></g><g id="edge3" class="edge"><title>temp0-&gt;temp1</title></g><g id="node6" class="node"><title>A_w1</title><polygon fill="none" stroke="#000" points="255 -180 282 -207 228 -207 255 -180"/><text x="255" y="-193.8" font-family="Times,serif" font-size="14" text-anchor="middle">w</text></g><g id="node8" class="node"><title>A_right</title><polygon fill="none" stroke="#000" points="269 -98.5 269 -142.5 323 -142.5 323 -98.5 269 -98.5"/><polyline fill="none" stroke="#000" points="269 -120.5 296 -120.5"/><text x="282.5" y="-105.3" font-family="Times,serif" font-size="14" text-anchor="middle">b</text><polyline fill="none" stroke="#000" points="296 -98.5 296 -142.5"/><polyline fill="none" stroke="#000" points="296 -120.5 323 -120.5"/><text x="309.5" y="-105.3" font-family="Times,serif" font-size="14" text-anchor="middle">d</text></g><g id="edge4" class="edge"><title>A_w1:s-&gt;A_right:b:n</title><path fill="none" stroke="#000" d="M257.889,-170.171C264.855,-160.159 282,-159.222 282,-143"/><polygon fill="#000" stroke="#000" points="254.463 -169.419 255 -180 261.178 -171.393 254.463 -169.419"/></g><g id="node7" class="node"><title>A_x1</title><polygon fill="none" stroke="#000" points="327 -180 354 -207 300 -207 327 -180"/><text x="327" y="-193.8" font-family="Times,serif" font-size="14" text-anchor="middle">x</text></g><g id="edge5" class="edge"><title>A_x1:s-&gt;A_right:d:n</title><path fill="none" stroke="#000" d="M324.778,-169.96C320.169,-160.65 310,-156.997 310,-143"/><polygon fill="#000" stroke="#000" points="321.421 -170.993 327 -180 328.256 -169.48 321.421 -170.993"/></g><g id="node9" class="node"><title>temp2a</title><ellipse cx="427" cy="-198" fill="none" stroke="none" rx="1.8" ry="1.8"/></g><g id="node10" class="node"><title>temp2b</title><ellipse cx="376" cy="-120.5" fill="none" stroke="none" rx="1.8" ry="1.8"/></g><g id="edge6" class="edge"><title>temp2a-&gt;temp2b</title></g><g id="node11" class="node"><title>temp2c</title><ellipse cx="468" cy="-120.5" fill="none" stroke="none" rx="1.8" ry="1.8"/></g><g id="edge7" class="edge"><title>temp2a-&gt;temp2c</title></g><g id="edge8" class="edge"><title>temp2b-&gt;temp2c</title><path fill="none" stroke="#000" d="M377.922,-120.5C387.837,-120.5 433.605,-120.5 455.827,-120.5"/><polygon fill="#000" stroke="#000" points="456.089 -124 466.089 -120.5 456.089 -117 456.089 -124"/><text x="422" y="-126.3" fill="#fffffe" font-family="Times,serif" font-size="14" text-anchor="middle">wwwwwww</text></g><g id="node12" class="node"><title>A_u2</title><polygon fill="none" stroke="#000" points="515 -102.5 542 -129.5 488 -129.5 515 -102.5"/><text x="515" y="-116.3" font-family="Times,serif" font-size="14" text-anchor="middle">u</text></g><g id="node17" class="node"><title>A_result</title><polygon fill="none" stroke="#000" points="551.632 -16.5 551.632 -60.5 622.368 -60.5 622.368 -16.5 551.632 -16.5"/><polyline fill="none" stroke="#000" points="551.632 -38.5 573.846 -38.5"/><text x="562.739" y="-23.3" font-family="Times,serif" font-size="14" text-anchor="middle">a</text><polyline fill="none" stroke="#000" points="573.846 -16.5 573.846 -60.5"/><polyline fill="none" stroke="#000" points="573.846 -38.5 599.368 -38.5"/><text x="586.607" y="-23.3" font-family="Times,serif" font-size="14" text-anchor="middle">b&apos;</text><polyline fill="none" stroke="#000" points="599.368 -16.5 599.368 -60.5"/><polyline fill="none" stroke="#000" points="599.368 -38.5 622.368 -38.5"/><text x="610.868" y="-23.3" font-family="Times,serif" font-size="14" text-anchor="middle">d</text></g><g id="edge9" class="edge"><title>A_u2:s-&gt;A_result:a:n</title><path fill="none" stroke="#000" d="M517.859,-91.6454C528.192,-77.1844 563,-84.7693 563,-61"/><polygon fill="#000" stroke="#000" points="514.425 -90.921 515 -101.5 521.148 -92.871 514.425 -90.921"/></g><g id="node13" class="node"><title>A_vw</title><polygon fill="none" stroke="#000" points="560 -102.5 560 -138.5 614 -138.5 614 -102.5 560 -102.5"/><polyline fill="none" stroke="#000" points="560 -120.5 585 -120.5"/><text x="572.5" y="-107.3" font-family="Times,serif" font-size="14" text-anchor="middle">v</text><polyline fill="none" stroke="#000" points="585 -102.5 585 -138.5"/><polyline fill="none" stroke="#000" points="585 -120.5 613.11 -120.5"/><text x="599.055" y="-107.3" font-family="Times,serif" font-size="14" text-anchor="middle">w</text></g><g id="edge10" class="edge"><title>A_vw:s-&gt;A_result:b:n</title><path fill="none" stroke="#000" d="M587,-91.3429C587,-80.8853 587,-75.0625 587,-61"/><polygon fill="#000" stroke="#000" points="583.5 -91.5 587 -101.5 590.5 -91.5 583.5 -91.5"/></g><g id="node14" class="node"><title>A_x2</title><polygon fill="none" stroke="#000" points="659 -102.5 686 -129.5 632 -129.5 659 -102.5"/><text x="659" y="-116.3" font-family="Times,serif" font-size="14" text-anchor="middle">x</text></g><g id="edge11" class="edge"><title>A_x2:s-&gt;A_result:d:n</title><path fill="none" stroke="#000" d="M656.141,-91.6454C645.808,-77.1844 611,-84.7693 611,-61"/><polygon fill="#000" stroke="#000" points="652.852 -92.871 659 -101.5 659.575 -90.921 652.852 -92.871"/></g><g id="node15" class="node"><title>A_vp</title><polygon fill="none" stroke="#000" points="544 -180 571 -207 517 -207 544 -180"/></g><g id="edge12" class="edge"><title>A_vp:s-&gt;A_vw:v:n</title><path fill="none" stroke="#000" d="M546.584,-170.012C553.516,-158.458 572,-157.28 572,-139.5"/><polygon fill="#000" stroke="#000" points="543.116 -169.442 544 -180 549.893 -171.195 543.116 -169.442"/></g><g id="node16" class="node"><title>A_wp</title><polygon fill="none" stroke="#000" points="616 -180 643 -207 589 -207 616 -180"/></g><g id="edge13" class="edge"><title>A_wp:s-&gt;A_vw:w:n</title><path fill="none" stroke="#000" d="M614.181,-170.037C609.795,-159.141 599,-155.056 599,-139.5"/><polygon fill="#000" stroke="#000" points="610.76 -170.791 616 -180 617.647 -169.534 610.76 -170.791"/></g></g></svg>