<svg xmlns="http://www.w3.org/2000/svg" xmlns:xlink="http://www.w3.org/1999/xlink" width="928" height="212pt" viewBox="0 0 695.59 212"><g id="graph0" class="graph" transform="scale(1 1) rotate(0) translate(18 194)"><polygon fill="#fff" stroke="none" points="-18 18 -18 -194 677.588 -194 677.588 18 -18 18"/><g id="clust1" class="cluster"><title>clusterA</title><polygon fill="none" stroke="none" points="102.774 -8 102.774 -168 568.75 -168 568.75 -8 102.774 -8"/></g><g id="node1" class="node"><title>BasicBlockStartState</title><g id="a_node1"><a target="_parent" xlink:href="../BasicBlockStartState.html" xlink:title="{BasicBlockStartState | {&lt;alt1&gt; alt 1 |&lt;alt2&gt; alt 2 | ·\n·\n· |&lt;altn&gt; alt n}}"><polygon fill="none" stroke="#000" points="110.774 -21.535 110.774 -152.465 307.513 -152.465 307.513 -21.535 110.774 -21.535"/><text x="185.995" y="-84.044" font-family="CourierNew" font-size="14" text-anchor="middle">BasicBlockStartState</text><polyline fill="none" stroke="#000" points="261.216 -21.535 261.216 -152.465"/><text x="284.365" y="-137.265" font-family="CourierNew" font-size="14" text-anchor="middle">alt 1</text><polyline fill="none" stroke="#000" points="261.216 -127.977 307.513 -127.977"/><text x="284.365" y="-112.777" font-family="CourierNew" font-size="14" text-anchor="middle">alt 2</text><polyline fill="none" stroke="#000" points="261.216 -103.488 307.513 -103.488"/><text x="284.365" y="-88.288" font-family="CourierNew" font-size="14" text-anchor="middle">·</text><text x="284.365" y="-71.8" font-family="CourierNew" font-size="14" text-anchor="middle">·</text><text x="284.365" y="-55.312" font-family="CourierNew" font-size="14" text-anchor="middle">·</text><polyline fill="none" stroke="#000" points="261.216 -46.023 307.513 -46.023"/><text x="284.365" y="-30.823" font-family="CourierNew" font-size="14" text-anchor="middle">alt n</text></a></g></g><g id="node3" class="node"><title>content1</title><ellipse cx="381.588" cy="-142" fill="none" stroke="#000" stroke-dasharray="5 2" rx="31.661" ry="18"/><text x="381.588" y="-139.044" font-family="CourierNew" font-size="14" text-anchor="middle">alt 1</text></g><g id="edge3" class="edge"><title>BasicBlockStartState:alt1-&gt;content1</title><path fill="none" stroke="#000" d="M307.513,-140C317.983,-140 329.295,-140.208 339.817,-140.489"/><polygon fill="#000" stroke="#000" points="339.917 -143.994 350.016 -140.79 340.124 -136.997 339.917 -143.994"/><text x="328.76" y="-145.288" font-family="CourierNew" font-size="14" text-anchor="middle">ε</text></g><g id="node4" class="node"><title>content2</title><ellipse cx="381.588" cy="-88" fill="none" stroke="#000" stroke-dasharray="5 2" rx="31.661" ry="18"/><text x="381.588" y="-85.044" font-family="CourierNew" font-size="14" text-anchor="middle">alt 2</text></g><g id="edge5" class="edge"><title>BasicBlockStartState:alt2-&gt;content2</title><path fill="none" stroke="#000" d="M307.513,-116C317.51,-116 316.513,-106.863 325.513,-102.512 330.521,-100.091 335.986,-98.0329 341.467,-96.2957"/><polygon fill="#000" stroke="#000" points="342.597 -99.613 351.254 -93.506 340.678 -92.882 342.597 -99.613"/><text x="328.76" y="-108.288" font-family="CourierNew" font-size="14" text-anchor="middle">ε</text></g><g id="node5" class="node"><title>more</title><ellipse cx="381.588" cy="-34" fill="none" stroke="#000" stroke-dasharray="5 2" rx="31.437" ry="18"/><text x="381.588" y="-31.044" font-family="CourierNew" font-size="14" text-anchor="middle">alt n</text></g><g id="edge7" class="edge"><title>BasicBlockStartState:altn-&gt;more</title><path fill="none" stroke="#000" d="M307.513,-34C317.98,-34 329.289,-34 339.812,-34"/><polygon fill="#000" stroke="#000" points="340.011 -37.5 350.011 -34 340.011 -30.5 340.011 -37.5"/><text x="328.76" y="-39.288" font-family="CourierNew" font-size="14" text-anchor="middle">ε</text></g><g id="node2" class="node"><title>BlockEndState</title><g id="a_node2"><a target="_parent" xlink:href="../BlockEndState.html" xlink:title="\N"><polygon fill="none" stroke="#000" points="450.168 -70 450.168 -106 560.75 -106 560.75 -70 450.168 -70"/><text x="505.459" y="-85.3" font-family="CourierNew" font-size="14" text-anchor="middle">BlockEndState</text></a></g></g><g id="node7" class="node"><title>end</title><ellipse cx="631.416" cy="-88" fill="none" stroke="#000" stroke-dasharray="5 2" rx="28.345" ry="18"/><text x="631.416" y="-85.044" font-family="CourierNew" font-size="14" text-anchor="middle">end</text></g><g id="edge2" class="edge"><title>BlockEndState-&gt;end</title><path fill="none" stroke="#000" d="M560.829,-88C571.643,-88 582.772,-88 592.87,-88"/><polygon fill="#000" stroke="#000" points="592.964 -91.5 602.964 -88 592.964 -84.5 592.964 -91.5"/><text x="581.997" y="-93.288" font-family="CourierNew" font-size="14" text-anchor="middle">ε</text></g><g id="edge4" class="edge"><title>content1-&gt;BlockEndState</title><path fill="none" stroke="#000" stroke-dasharray="5 2" d="M406.957,-131.202C420.545,-125.182 437.982,-117.455 454.344,-110.206"/><polygon fill="#000" stroke="#000" points="456.091 -113.26 463.816 -106.009 453.255 -106.86 456.091 -113.26"/></g><g id="edge6" class="edge"><title>content2-&gt;BlockEndState</title><path fill="none" stroke="#000" stroke-dasharray="5 2" d="M413.341,-88C421.523,-88 430.676,-88 439.94,-88"/><polygon fill="#000" stroke="#000" points="439.995 -91.5 449.995 -88 439.995 -84.5 439.995 -91.5"/></g><g id="edge8" class="edge"><title>more-&gt;BlockEndState</title><path fill="none" stroke="#000" stroke-dasharray="5 2" d="M406.957,-44.7979C420.545,-50.8185 437.982,-58.5446 454.344,-65.7943"/><polygon fill="#000" stroke="#000" points="453.255 -69.14 463.816 -69.991 456.091 -62.74 453.255 -69.14"/></g><g id="node6" class="node"><title>begin</title><ellipse cx="36.887" cy="-87" fill="none" stroke="#000" stroke-dasharray="5 2" rx="36.774" ry="18"/><text x="36.887" y="-84.044" font-family="CourierNew" font-size="14" text-anchor="middle">begin</text></g><g id="edge1" class="edge"><title>begin-&gt;BasicBlockStartState</title><path fill="none" stroke="#000" stroke-dasharray="5 2" d="M73.994,-87C82.0226,-87 90.9336,-87 100.236,-87"/><polygon fill="#000" stroke="#000" points="100.461 -90.5 110.461 -87 100.461 -83.5 100.461 -90.5"/></g></g></svg>