<svg xmlns="http://www.w3.org/2000/svg" xmlns:xlink="http://www.w3.org/1999/xlink" width="1640" height="316pt" viewBox="0 0 1230.08 316"><g id="graph0" class="graph" transform="scale(1 1) rotate(0) translate(18 298)"><polygon fill="#fff" stroke="none" points="-18 18 -18 -298 1212.08 -298 1212.08 18 -18 18"/><g id="clust1" class="cluster"><title>cluster0</title><polygon fill="none" stroke="none" points="102.774 -8 102.774 -272 1103.24 -272 1103.24 -8 102.774 -8"/></g><g id="node1" class="node"><title>StarLoopEntryState</title><g id="a_node1"><a target="_parent" xlink:href="../StarLoopEntryState.html" xlink:title="{StarLoopEntryState | {&lt;alt1&gt; alt 1 |&lt;alt2&gt; alt 2}}"><polygon fill="none" stroke="#000" points="110.774 -126.512 110.774 -175.488 300.629 -175.488 300.629 -126.512 110.774 -126.512"/><text x="182.553" y="-148.044" font-family="CourierNew" font-size="14" text-anchor="middle">StarLoopEntryState</text><polyline fill="none" stroke="#000" points="254.332 -126.512 254.332 -175.488"/><text x="277.481" y="-160.288" font-family="CourierNew" font-size="14" text-anchor="middle">alt 1</text><polyline fill="none" stroke="#000" points="254.332 -151 300.629 -151"/><text x="277.481" y="-135.8" font-family="CourierNew" font-size="14" text-anchor="middle">alt 2</text></a></g></g><g id="node3" class="node"><title>StarBlockStartState</title><g id="a_node3"><a target="_parent" xlink:href="../StarBlockStartState.html" xlink:title="{StarBlockStartState | {&lt;alt1&gt; alt 1 |&lt;alt2&gt; alt 2 | ·\n·\n· |&lt;altn&gt; alt n}}"><polygon fill="none" stroke="#000" points="343.124 -73.535 343.124 -204.465 532.624 -204.465 532.624 -73.535 343.124 -73.535"/><text x="414.725" y="-136.044" font-family="CourierNew" font-size="14" text-anchor="middle">StarBlockStartState</text><polyline fill="none" stroke="#000" points="486.327 -73.535 486.327 -204.465"/><text x="509.475" y="-189.265" font-family="CourierNew" font-size="14" text-anchor="middle">alt 1</text><polyline fill="none" stroke="#000" points="486.327 -179.977 532.624 -179.977"/><text x="509.475" y="-164.777" font-family="CourierNew" font-size="14" text-anchor="middle">alt 2</text><polyline fill="none" stroke="#000" points="486.327 -155.488 532.624 -155.488"/><text x="509.475" y="-140.288" font-family="CourierNew" font-size="14" text-anchor="middle">·</text><text x="509.475" y="-123.8" font-family="CourierNew" font-size="14" text-anchor="middle">·</text><text x="509.475" y="-107.312" font-family="CourierNew" font-size="14" text-anchor="middle">·</text><polyline fill="none" stroke="#000" points="486.327 -98.023 532.624 -98.023"/><text x="509.475" y="-82.823" font-family="CourierNew" font-size="14" text-anchor="middle">alt n</text></a></g></g><g id="edge10" class="edge"><title>StarLoopEntryState:alt2-&gt;StarBlockStartState</title><path fill="none" stroke="#000" d="M300.629,-139C311.133,-139 322.092,-139 333.033,-139"/><polygon fill="#000" stroke="#000" points="333.061 -142.5 343.061 -139 333.061 -135.5 333.061 -142.5"/><text x="321.876" y="-145.288" font-family="CourierNew" font-size="14" text-anchor="middle">ε</text></g><g id="node5" class="node"><title>LoopEndState</title><g id="a_node5"><a target="_parent" xlink:href="../LoopEndState.html" xlink:title="\N"><polygon fill="none" stroke="#000" points="987.268 -227 987.268 -263 1095.24 -263 1095.24 -227 987.268 -227"/><text x="1041.25" y="-242.3" font-family="CourierNew" font-size="14" text-anchor="middle">LoopEndState</text></a></g></g><g id="edge11" class="edge"><title>StarLoopEntryState:alt1-&gt;LoopEndState</title><path fill="none" stroke="#000" d="M277.702,-176C277.702,-205.838 427.988,-248 436.874,-248 436.874,-248 436.874,-248 808.108,-248 865.253,-248 930.304,-247.08 976.978,-246.259"/><polygon fill="#000" stroke="#000" points="977.305 -249.754 987.241 -246.075 977.179 -242.755 977.305 -249.754"/><text x="606.698" y="-253.288" font-family="CourierNew" font-size="14" text-anchor="middle">ε</text></g><g id="node2" class="node"><title>StarLoopbackState</title><g id="a_node2"><a target="_parent" xlink:href="../StarLoopbackState.html" xlink:title="\N"><polygon fill="none" stroke="#000" points="828.355 -46 828.355 -82 969.268 -82 969.268 -46 828.355 -46"/><text x="898.811" y="-61.3" font-family="CourierNew" font-size="14" text-anchor="middle">StarLoopbackState</text></a></g></g><g id="edge12" class="edge"><title>StarLoopbackState:s-&gt;StarLoopEntryState:s</title><path fill="none" stroke="#000" d="M898.811,-45C898.811,29.4902 806.06,-34 731.57,-34 436.874,-34 436.874,-34 436.874,-34 329.857,-34 213.464,-16.5978 206.073,-115.707"/><polygon fill="#000" stroke="#000" points="202.565 -115.88 205.702 -126 209.56 -116.133 202.565 -115.88"/><text x="606.698" y="-39.288" font-family="CourierNew" font-size="14" text-anchor="middle">ε</text></g><g id="node6" class="node"><title>content1</title><ellipse cx="606.698" cy="-194" fill="none" stroke="#000" stroke-dasharray="5 2" rx="31.661" ry="18"/><text x="606.698" y="-191.044" font-family="CourierNew" font-size="14" text-anchor="middle">alt 1</text></g><g id="edge3" class="edge"><title>StarBlockStartState:alt1-&gt;content1</title><path fill="none" stroke="#000" d="M532.624,-192C543.094,-192 554.405,-192.208 564.927,-192.489"/><polygon fill="#000" stroke="#000" points="565.028 -195.994 575.127 -192.79 565.234 -188.997 565.028 -195.994"/><text x="553.871" y="-197.288" font-family="CourierNew" font-size="14" text-anchor="middle">ε</text></g><g id="node7" class="node"><title>content2</title><ellipse cx="606.698" cy="-140" fill="none" stroke="#000" stroke-dasharray="5 2" rx="31.661" ry="18"/><text x="606.698" y="-137.044" font-family="CourierNew" font-size="14" text-anchor="middle">alt 2</text></g><g id="edge5" class="edge"><title>StarBlockStartState:alt2-&gt;content2</title><path fill="none" stroke="#000" d="M532.624,-168C542.62,-168 541.623,-158.863 550.624,-154.512 555.631,-152.091 561.097,-150.033 566.578,-148.296"/><polygon fill="#000" stroke="#000" points="567.707 -151.613 576.365 -145.506 565.788 -144.881 567.707 -151.613"/><text x="553.871" y="-159.288" font-family="CourierNew" font-size="14" text-anchor="middle">ε</text></g><g id="node8" class="node"><title>more</title><ellipse cx="606.698" cy="-86" fill="none" stroke="#000" stroke-dasharray="5 2" rx="31.437" ry="18"/><text x="606.698" y="-83.044" font-family="CourierNew" font-size="14" text-anchor="middle">alt n</text></g><g id="edge7" class="edge"><title>StarBlockStartState:altn-&gt;more</title><path fill="none" stroke="#000" d="M532.624,-86C543.09,-86 554.4,-86 564.922,-86"/><polygon fill="#000" stroke="#000" points="565.122 -89.5 575.122 -86 565.122 -82.5 565.122 -89.5"/><text x="553.871" y="-91.288" font-family="CourierNew" font-size="14" text-anchor="middle">ε</text></g><g id="node4" class="node"><title>BlockEndState</title><g id="a_node4"><a target="_parent" xlink:href="../BlockEndState.html" xlink:title="\N"><polygon fill="none" stroke="#000" points="675.279 -82 675.279 -118 785.861 -118 785.861 -82 675.279 -82"/><text x="730.57" y="-97.3" font-family="CourierNew" font-size="14" text-anchor="middle">BlockEndState</text></a></g></g><g id="edge9" class="edge"><title>BlockEndState:e-&gt;StarLoopbackState:w</title><path fill="none" stroke="#000" d="M785.861,-100C806.552,-100 805.048,-74.8435 818.456,-66.589"/><polygon fill="#000" stroke="#000" points="819.566 -69.917 828.355 -64 817.795 -63.144 819.566 -69.917"/><text x="807.108" y="-93.288" font-family="CourierNew" font-size="14" text-anchor="middle">ε</text></g><g id="node10" class="node"><title>end</title><ellipse cx="1165.9" cy="-245" fill="none" stroke="#000" stroke-dasharray="5 2" rx="28.345" ry="18"/><text x="1165.9" y="-242.044" font-family="CourierNew" font-size="14" text-anchor="middle">end</text></g><g id="edge2" class="edge"><title>LoopEndState-&gt;end</title><path fill="none" stroke="#000" d="M1095.34,-245C1106.2,-245 1117.41,-245 1127.57,-245"/><polygon fill="#000" stroke="#000" points="1127.73 -248.5 1137.73 -245 1127.73 -241.5 1127.73 -248.5"/><text x="1116.49" y="-250.288" font-family="CourierNew" font-size="14" text-anchor="middle">ε</text></g><g id="edge4" class="edge"><title>content1-&gt;BlockEndState</title><path fill="none" stroke="#000" stroke-dasharray="5 2" d="M626.208,-179.723C645.185,-165.086 675.062,-142.042 697.824,-124.486"/><polygon fill="#000" stroke="#000" points="700.074 -127.17 705.855 -118.291 695.799 -121.627 700.074 -127.17"/></g><g id="edge6" class="edge"><title>content2-&gt;BlockEndState</title><path fill="none" stroke="#000" stroke-dasharray="5 2" d="M634.443,-131.222C643.656,-128.198 654.411,-124.668 665.307,-121.092"/><polygon fill="#000" stroke="#000" points="666.475 -124.392 674.885 -117.948 664.292 -117.741 666.475 -124.392"/></g><g id="edge8" class="edge"><title>more-&gt;BlockEndState</title><path fill="none" stroke="#000" stroke-dasharray="5 2" d="M637.824,-89.4607C646.194,-90.4222 655.617,-91.5047 665.154,-92.6003"/><polygon fill="#000" stroke="#000" points="664.76 -96.078 675.094 -93.742 665.559 -89.124 664.76 -96.078"/></g><g id="node9" class="node"><title>begin</title><ellipse cx="36.887" cy="-151" fill="none" stroke="#000" stroke-dasharray="5 2" rx="36.774" ry="18"/><text x="36.887" y="-148.044" font-family="CourierNew" font-size="14" text-anchor="middle">begin</text></g><g id="edge1" class="edge"><title>begin-&gt;StarLoopEntryState</title><path fill="none" stroke="#000" stroke-dasharray="5 2" d="M74.0833,-151C82.1758,-151 91.1525,-151 100.502,-151"/><polygon fill="#000" stroke="#000" points="100.768 -154.5 110.768 -151 100.768 -147.5 100.768 -154.5"/></g></g></svg>