<svg xmlns="http://www.w3.org/2000/svg" xmlns:xlink="http://www.w3.org/1999/xlink" width="440" height="104pt" viewBox="0 0 396 125"><g id="graph0" class="graph" transform="scale(0.833333 0.833333) rotate(0) translate(4 121)"><polygon fill="#fff" stroke="none" points="-4 4 -4 -121 392 -121 392 4 -4 4"/><g id="node1" class="node"><title>left</title><text x="27" y="-90.8" font-family="Times,serif" font-size="14" text-anchor="middle">$</text></g><g id="node2" class="node"><title>leftroot</title><text x="27" y="-13.8" font-family="Times,serif" font-size="14" text-anchor="middle">a</text></g><g id="edge1" class="edge"><title>left-&gt;leftroot</title><path fill="none" stroke="#000" d="M27,-66.8666C27,-56.6362 27,-45.2888 27,-36.2109"/><polygon fill="#000" stroke="#000" points="23.5 -66.981 27 -76.981 30.5 -66.981 23.5 -66.981"/></g><g id="node3" class="node"><title>temp1</title><text x="99" y="-90.8" font-family="Times,serif" font-size="14" text-anchor="middle">+</text></g><g id="node4" class="node"><title>right</title><polygon fill="none" stroke="#000" points="173 -73 202.114 -106 143.886 -106 173 -73"/><text x="173" y="-90.8" font-family="Times,serif" font-size="14" text-anchor="middle">x</text></g><g id="node5" class="node"><title>rightroot</title><text x="173" y="-13.8" font-family="Times,serif" font-size="14" text-anchor="middle">a</text></g><g id="edge2" class="edge"><title>right-&gt;rightroot</title><path fill="none" stroke="#000" d="M173,-62.4376C173,-53.3919 173,-43.8734 173,-36.0597"/><polygon fill="#000" stroke="#000" points="169.5 -62.709 173 -72.709 176.5 -62.709 169.5 -62.709"/></g><g id="node6" class="node"><title>temp2b</title><ellipse cx="222" cy="-95" fill="none" stroke="none" rx="1.8" ry="1.8"/></g><g id="node7" class="node"><title>temp2c</title><ellipse cx="314" cy="-95" fill="none" stroke="none" rx="1.8" ry="1.8"/></g><g id="edge3" class="edge"><title>temp2b-&gt;temp2c</title><path fill="none" stroke="#000" d="M223.922,-95C233.837,-95 279.605,-95 301.827,-95"/><polygon fill="#000" stroke="#000" points="302.089 -98.5 312.089 -95 302.089 -91.5 302.089 -98.5"/><text x="268" y="-100.8" fill="#fffffe" font-family="Times,serif" font-size="14" text-anchor="middle">wwwwwww</text></g><g id="node8" class="node"><title>result</title><text x="361" y="-90.8" font-family="Times,serif" font-size="14" text-anchor="middle">$</text></g><g id="node9" class="node"><title>resultroot</title><text x="361" y="-13.8" font-family="Times,serif" font-size="14" text-anchor="middle">a</text></g><g id="edge4" class="edge"><title>result-&gt;resultroot</title><path fill="none" stroke="#000" d="M361,-66.8666C361,-56.6362 361,-45.2888 361,-36.2109"/><polygon fill="#000" stroke="#000" points="357.5 -66.981 361 -76.981 364.5 -66.981 357.5 -66.981"/></g></g></svg>