<svg xmlns="http://www.w3.org/2000/svg" xmlns:xlink="http://www.w3.org/1999/xlink" width="331pt" height="112pt" viewBox="0 0 397 134"><g id="graph0" class="graph" transform="scale(0.833333 0.833333) rotate(0) translate(4 130)"><polygon fill="#fff" stroke="none" points="-4 4 -4 -130 393 -130 393 4 -4 4"/><g id="node1" class="node"><title>left</title><text x="27" y="-99.8" font-family="Times,serif" font-size="14" text-anchor="middle">$</text></g><g id="node2" class="node"><title>leftroot</title><text x="27" y="-18.3" font-family="Times,serif" font-size="14" text-anchor="middle">a</text></g><g id="edge1" class="edge"><title>left-&gt;leftroot</title><path fill="none" stroke="#000" d="M27,-75.6734C27,-64.0802 27,-50.9196 27,-40.7167"/><polygon fill="#000" stroke="#000" points="23.5 -75.75 27 -85.75 30.5 -75.75 23.5 -75.75"/></g><g id="node3" class="node"><title>temp1</title><text x="99" y="-99.8" font-family="Times,serif" font-size="14" text-anchor="middle">+</text></g><g id="node4" class="node"><title>right</title><polygon fill="none" stroke="#000" points="173 -82 202.114 -115 143.886 -115 173 -82"/><text x="173" y="-99.8" font-family="Times,serif" font-size="14" text-anchor="middle">x</text></g><g id="node5" class="node"><title>rightroot</title><text x="173" y="-18.3" font-family="Times,serif" font-size="14" text-anchor="middle">b</text></g><g id="edge2" class="edge"><title>right-&gt;rightroot</title><path fill="none" stroke="#000" d="M173,-71.5313C173,-60.9787 173,-49.6112 173,-40.5853"/><polygon fill="#000" stroke="#000" points="169.5 -71.695 173 -81.695 176.5 -71.695 169.5 -71.695"/></g><g id="node6" class="node"><title>temp2b</title><ellipse cx="222" cy="-104" fill="none" stroke="none" rx="1.8" ry="1.8"/></g><g id="node7" class="node"><title>temp2c</title><ellipse cx="314" cy="-104" fill="none" stroke="none" rx="1.8" ry="1.8"/></g><g id="edge3" class="edge"><title>temp2b-&gt;temp2c</title><path fill="none" stroke="#000" d="M223.922,-104C233.837,-104 279.605,-104 301.827,-104"/><polygon fill="#000" stroke="#000" points="302.089 -107.5 312.089 -104 302.089 -100.5 302.089 -107.5"/><text x="268" y="-109.8" fill="#fffffe" font-family="Times,serif" font-size="14" text-anchor="middle">wwwwwww</text></g><g id="node8" class="node"><title>result</title><text x="361" y="-99.8" font-family="Times,serif" font-size="14" text-anchor="middle">$</text></g><g id="node9" class="node"><title>resultroot</title><polygon fill="none" stroke="#000" points="335 -.5 335 -44.5 389 -44.5 389 -.5 335 -.5"/><polyline fill="none" stroke="#000" points="335 -22.5 361.214 -22.5"/><text x="348.107" y="-7.3" font-family="Times,serif" font-size="14" text-anchor="middle">a</text><polyline fill="none" stroke="#000" points="361.214 -.5 361.214 -44.5"/><polyline fill="none" stroke="#000" points="361.214 -22.5 388.214 -22.5"/><text x="374.714" y="-7.3" font-family="Times,serif" font-size="14" text-anchor="middle">b</text></g><g id="edge4" class="edge"><title>result-&gt;resultroot:a:n</title><path fill="none" stroke="#000" d="M352.392,-76.0956C349.979,-66.399 348,-55.3064 348,-45"/><polygon fill="#000" stroke="#000" points="349.081 -77.253 355.109 -85.966 355.83 -75.396 349.081 -77.253"/></g><g id="edge5" class="edge"><title>result-&gt;resultroot:b:n</title><path fill="none" stroke="#000" d="M370.327,-75.9254C372.9,-66.2837 375,-55.2696 375,-45"/><polygon fill="#000" stroke="#000" points="366.902 -75.167 367.426 -85.749 373.615 -77.15 366.902 -75.167"/></g></g></svg>