<svg xmlns="http://www.w3.org/2000/svg" xmlns:xlink="http://www.w3.org/1999/xlink" width="686pt" height="208" viewBox="0 0 686.43 156"><g id="graph0" class="graph" transform="scale(1 1) rotate(0) translate(18 138)"><polygon fill="#fff" stroke="none" points="-18 18 -18 -138 668.427 -138 668.427 18 -18 18"/><g id="clust1" class="cluster"><title>cluster0</title><polygon fill="none" stroke="none" points="102.774 -8 102.774 -112 559.589 -112 559.589 -8 102.774 -8"/></g><g id="node1" class="node"><title>BasicBlockStartState</title><g id="a_node1"><a target="_parent" xlink:href="../BasicBlockStartState.html" xlink:title="{BasicBlockStartState | {&lt;alt1&gt; alt 1 |&lt;alt2&gt; alt 2}}"><polygon fill="none" stroke="#000" points="110.774 -43.512 110.774 -92.488 307.513 -92.488 307.513 -43.512 110.774 -43.512"/><text x="185.995" y="-65.044" font-family="CourierNew" font-size="14" text-anchor="middle">BasicBlockStartState</text><polyline fill="none" stroke="#000" points="261.216 -43.512 261.216 -92.488"/><text x="284.365" y="-77.288" font-family="CourierNew" font-size="14" text-anchor="middle">alt 1</text><polyline fill="none" stroke="#000" points="261.216 -68 307.513 -68"/><text x="284.365" y="-52.8" font-family="CourierNew" font-size="14" text-anchor="middle">alt 2</text></a></g></g><g id="node2" class="node"><title>BlockEndState</title><g id="a_node2"><a target="_parent" xlink:href="../BlockEndState.html" xlink:title="\N"><polygon fill="none" stroke="#000" points="441.007 -42 441.007 -78 551.589 -78 551.589 -42 441.007 -42"/><text x="496.298" y="-57.3" font-family="CourierNew" font-size="14" text-anchor="middle">BlockEndState</text></a></g></g><g id="edge5" class="edge"><title>BasicBlockStartState:alt1-&gt;BlockEndState</title><path fill="none" stroke="#000" d="M307.513,-80C348.72,-80 394.728,-75.1793 430.891,-70.2714"/><polygon fill="#000" stroke="#000" points="431.396 -73.735 440.817 -68.889 430.43 -66.802 431.396 -73.735"/><text x="377.007" y="-83.288" font-family="CourierNew" font-size="14" text-anchor="middle">ε</text></g><g id="node3" class="node"><title>content</title><ellipse cx="377.007" cy="-34" fill="none" stroke="#000" stroke-dasharray="5 2" rx="27" ry="18"/><text x="377.007" y="-31.044" font-family="CourierNew" font-size="14" text-anchor="middle">alt</text></g><g id="edge3" class="edge"><title>BasicBlockStartState:alt2-&gt;content</title><path fill="none" stroke="#000" d="M307.513,-56C320.264,-56 333.739,-52.501 345.331,-48.2939"/><polygon fill="#000" stroke="#000" points="346.956 -51.415 354.969 -44.484 344.383 -44.906 346.956 -51.415"/><text x="328.76" y="-59.288" font-family="CourierNew" font-size="14" text-anchor="middle">ε</text></g><g id="node5" class="node"><title>end</title><ellipse cx="622.255" cy="-60" fill="none" stroke="#000" stroke-dasharray="5 2" rx="28.345" ry="18"/><text x="622.255" y="-57.044" font-family="CourierNew" font-size="14" text-anchor="middle">end</text></g><g id="edge2" class="edge"><title>BlockEndState-&gt;end</title><path fill="none" stroke="#000" d="M551.668,-60C562.482,-60 573.611,-60 583.709,-60"/><polygon fill="#000" stroke="#000" points="583.803 -63.5 593.803 -60 583.803 -56.5 583.803 -63.5"/><text x="572.836" y="-65.288" font-family="CourierNew" font-size="14" text-anchor="middle">ε</text></g><g id="edge4" class="edge"><title>content-&gt;BlockEndState</title><path fill="none" stroke="#000" stroke-dasharray="5 2" d="M402.882,-39.5139C411.153,-41.3474 420.784,-43.4823 430.643,-45.6679"/><polygon fill="#000" stroke="#000" points="430.017 -49.114 440.538 -47.861 431.532 -42.28 430.017 -49.114"/></g><g id="node4" class="node"><title>begin</title><ellipse cx="36.887" cy="-68" fill="none" stroke="#000" stroke-dasharray="5 2" rx="36.774" ry="18"/><text x="36.887" y="-65.044" font-family="CourierNew" font-size="14" text-anchor="middle">begin</text></g><g id="edge1" class="edge"><title>begin-&gt;BasicBlockStartState</title><path fill="none" stroke="#000" stroke-dasharray="5 2" d="M73.994,-68C82.0226,-68 90.9336,-68 100.236,-68"/><polygon fill="#000" stroke="#000" points="100.461 -71.5 110.461 -68 100.461 -64.5 100.461 -71.5"/></g></g></svg>