<svg xmlns="http://www.w3.org/2000/svg" xmlns:xlink="http://www.w3.org/1999/xlink" width="686pt" height="208" viewBox="0 0 686.43 156"><g id="graph0" class="graph" transform="scale(1 1) rotate(0) translate(18 138)"><polygon fill="#fff" stroke="none" points="-18 18 -18 -138 668.427 -138 668.427 18 -18 18"/><g id="clust1" class="cluster"><title>cluster0</title><polygon fill="none" stroke="none" points="102.774 -8 102.774 -112 559.589 -112 559.589 -8 102.774 -8"/></g><g id="node1" class="node"><title>BasicBlockStartState</title><g id="a_node1"><a target="_parent" xlink:href="../BasicBlockStartState.html" xlink:title="{BasicBlockStartState | {&lt;alt1&gt; alt 1 |&lt;alt2&gt; alt 2}}"><polygon fill="none" stroke="#000" points="110.774 -28.512 110.774 -77.488 307.513 -77.488 307.513 -28.512 110.774 -28.512"/><text x="185.995" y="-50.044" font-family="CourierNew" font-size="14" text-anchor="middle">BasicBlockStartState</text><polyline fill="none" stroke="#000" points="261.216 -28.512 261.216 -77.488"/><text x="284.365" y="-62.288" font-family="CourierNew" font-size="14" text-anchor="middle">alt 1</text><polyline fill="none" stroke="#000" points="261.216 -53 307.513 -53"/><text x="284.365" y="-37.8" font-family="CourierNew" font-size="14" text-anchor="middle">alt 2</text></a></g></g><g id="node2" class="node"><title>BlockEndState</title><g id="a_node2"><a target="_parent" xlink:href="../BlockEndState.html" xlink:title="\N"><polygon fill="none" stroke="#000" points="441.007 -31 441.007 -67 551.589 -67 551.589 -31 441.007 -31"/><text x="496.298" y="-46.3" font-family="CourierNew" font-size="14" text-anchor="middle">BlockEndState</text></a></g></g><g id="edge5" class="edge"><title>BasicBlockStartState:alt2-&gt;BlockEndState</title><path fill="none" stroke="#000" d="M307.513,-41C350.405,-41 361.156,-40.6547 404.007,-42.5117 412.658,-42.8866 421.761,-43.3958 430.734,-43.9653"/><polygon fill="#000" stroke="#000" points="430.568 -47.462 440.778 -44.63 431.03 -40.477 430.568 -47.462"/><text x="377.007" y="-47.288" font-family="CourierNew" font-size="14" text-anchor="middle">ε</text></g><g id="node3" class="node"><title>content</title><ellipse cx="377.007" cy="-86" fill="none" stroke="#000" stroke-dasharray="5 2" rx="27" ry="18"/><text x="377.007" y="-83.044" font-family="CourierNew" font-size="14" text-anchor="middle">alt</text></g><g id="edge3" class="edge"><title>BasicBlockStartState:alt1-&gt;content</title><path fill="none" stroke="#000" d="M307.513,-65C320.115,-65 333.471,-68.2895 345.01,-72.2647"/><polygon fill="#000" stroke="#000" points="344.026 -75.634 354.618 -75.869 346.484 -69.08 344.026 -75.634"/><text x="328.76" y="-73.288" font-family="CourierNew" font-size="14" text-anchor="middle">ε</text></g><g id="node5" class="node"><title>end</title><ellipse cx="622.255" cy="-49" fill="none" stroke="#000" stroke-dasharray="5 2" rx="28.345" ry="18"/><text x="622.255" y="-46.044" font-family="CourierNew" font-size="14" text-anchor="middle">end</text></g><g id="edge2" class="edge"><title>BlockEndState-&gt;end</title><path fill="none" stroke="#000" d="M551.668,-49C562.482,-49 573.611,-49 583.709,-49"/><polygon fill="#000" stroke="#000" points="583.803 -52.5 593.803 -49 583.803 -45.5 583.803 -52.5"/><text x="572.836" y="-54.288" font-family="CourierNew" font-size="14" text-anchor="middle">ε</text></g><g id="edge4" class="edge"><title>content-&gt;BlockEndState</title><path fill="none" stroke="#000" stroke-dasharray="5 2" d="M401.743,-78.5125C410.353,-75.7964 420.541,-72.5824 430.972,-69.2921"/><polygon fill="#000" stroke="#000" points="432.097 -72.607 440.58 -66.261 429.991 -65.932 432.097 -72.607"/></g><g id="node4" class="node"><title>begin</title><ellipse cx="36.887" cy="-53" fill="none" stroke="#000" stroke-dasharray="5 2" rx="36.774" ry="18"/><text x="36.887" y="-50.044" font-family="CourierNew" font-size="14" text-anchor="middle">begin</text></g><g id="edge1" class="edge"><title>begin-&gt;BasicBlockStartState</title><path fill="none" stroke="#000" stroke-dasharray="5 2" d="M73.994,-53C82.0226,-53 90.9336,-53 100.236,-53"/><polygon fill="#000" stroke="#000" points="100.461 -56.5 110.461 -53 100.461 -49.5 100.461 -56.5"/></g></g></svg>