<svg xmlns="http://www.w3.org/2000/svg" xmlns:xlink="http://www.w3.org/1999/xlink" width="1075pt" height="295pt" viewBox="0 0 1075.43 294.94"><g id="graph0" class="graph" transform="scale(1 1) rotate(0) translate(18 276.942)"><polygon fill="#fff" stroke="none" points="-18 18 -18 -276.942 1057.43 -276.942 1057.43 18 -18 18"/><g id="clust1" class="cluster"><title>cluster0</title><polygon fill="none" stroke="none" points="102.774 -70.942 102.774 -250.942 948.596 -250.942 948.596 -70.942 102.774 -70.942"/></g><g id="node1" class="node"><title>PlusBlockStartState</title><g id="a_node1"><a target="_parent" xlink:href="../PlusBlockStartState.html" xlink:title="{PlusBlockStartState | {&lt;alt1&gt; alt 1 |&lt;alt2&gt; alt 2 | ·\n·\n· |&lt;altn&gt; alt n}}"><polygon fill="none" stroke="#000" points="110.774 -88.477 110.774 -219.406 300.985 -219.406 300.985 -88.477 110.774 -88.477"/><text x="182.731" y="-150.986" font-family="CourierNew" font-size="14" text-anchor="middle">PlusBlockStartState</text><polyline fill="none" stroke="#000" points="254.688 -88.477 254.688 -219.406"/><text x="277.836" y="-204.206" font-family="CourierNew" font-size="14" text-anchor="middle">alt 1</text><polyline fill="none" stroke="#000" points="254.688 -194.918 300.985 -194.918"/><text x="277.836" y="-179.718" font-family="CourierNew" font-size="14" text-anchor="middle">alt 2</text><polyline fill="none" stroke="#000" points="254.688 -170.43 300.985 -170.43"/><text x="277.836" y="-155.23" font-family="CourierNew" font-size="14" text-anchor="middle">·</text><text x="277.836" y="-138.742" font-family="CourierNew" font-size="14" text-anchor="middle">·</text><text x="277.836" y="-122.253" font-family="CourierNew" font-size="14" text-anchor="middle">·</text><polyline fill="none" stroke="#000" points="254.688 -112.965 300.985 -112.965"/><text x="277.836" y="-97.765" font-family="CourierNew" font-size="14" text-anchor="middle">alt n</text></a></g></g><g id="node5" class="node"><title>content1</title><ellipse cx="375.059" cy="-224.942" fill="none" stroke="#000" stroke-dasharray="5 2" rx="31.661" ry="18"/><text x="375.059" y="-221.986" font-family="CourierNew" font-size="14" text-anchor="middle">alt 1</text></g><g id="edge3" class="edge"><title>PlusBlockStartState:alt1-&gt;content1</title><path fill="none" stroke="#000" d="M300.985,-206.942C313.314,-206.942 326.482,-209.387 338.195,-212.475"/><polygon fill="#000" stroke="#000" points="337.48 -215.911 348.057 -215.309 339.413 -209.183 337.48 -215.911"/><text x="322.232" y="-214.23" font-family="CourierNew" font-size="14" text-anchor="middle">ε</text></g><g id="node6" class="node"><title>content2</title><ellipse cx="375.059" cy="-170.942" fill="none" stroke="#000" stroke-dasharray="5 2" rx="31.661" ry="18"/><text x="375.059" y="-167.986" font-family="CourierNew" font-size="14" text-anchor="middle">alt 2</text></g><g id="edge5" class="edge"><title>PlusBlockStartState:alt2-&gt;content2</title><path fill="none" stroke="#000" d="M300.985,-182.942C309.134,-182.942 310.957,-180.851 318.985,-179.453 323.852,-178.606 328.969,-177.758 334.042,-176.943"/><polygon fill="#000" stroke="#000" points="334.965 -180.341 344.299 -175.329 333.877 -173.426 334.965 -180.341"/><text x="322.232" y="-185.23" font-family="CourierNew" font-size="14" text-anchor="middle">ε</text></g><g id="node7" class="node"><title>more</title><ellipse cx="375.059" cy="-116.942" fill="none" stroke="#000" stroke-dasharray="5 2" rx="31.437" ry="18"/><text x="375.059" y="-113.986" font-family="CourierNew" font-size="14" text-anchor="middle">alt n</text></g><g id="edge7" class="edge"><title>PlusBlockStartState:altn-&gt;more</title><path fill="none" stroke="#000" d="M300.985,-100.942C313.038,-100.942 325.957,-103.045 337.529,-105.726"/><polygon fill="#000" stroke="#000" points="336.744 -109.137 347.296 -108.193 338.458 -102.35 336.744 -109.137"/><text x="322.232" y="-109.23" font-family="CourierNew" font-size="14" text-anchor="middle">ε</text></g><g id="node2" class="node"><title>PlusLoopbackState</title><g id="a_node2"><a target="_parent" xlink:href="../PlusLoopbackState.html" xlink:title="{PlusLoopbackState | {&lt;alt1&gt; alt 1 |&lt;alt2&gt; alt 2}}"><polygon fill="none" stroke="#000" points="602.21 -101.453 602.21 -150.43 790.131 -150.43 790.131 -101.453 602.21 -101.453"/><text x="673.022" y="-122.986" font-family="CourierNew" font-size="14" text-anchor="middle">PlusLoopbackState</text><polyline fill="none" stroke="#000" points="743.834 -101.453 743.834 -150.43"/><text x="766.983" y="-135.23" font-family="CourierNew" font-size="14" text-anchor="middle">alt 1</text><polyline fill="none" stroke="#000" points="743.834 -125.942 790.131 -125.942"/><text x="766.983" y="-110.742" font-family="CourierNew" font-size="14" text-anchor="middle">alt 2</text></a></g></g><g id="edge10" class="edge"><title>PlusLoopbackState:alt2:s-&gt;PlusBlockStartState:s</title><path fill="none" stroke="#000" d="M767.171,-100.942C767.171,20.4117 236.155,36.0287 207.115,-78.0155"/><polygon fill="#000" stroke="#000" points="203.642 -77.586 205.879 -87.942 210.588 -78.451 203.642 -77.586"/><text x="427.887" y="-7.23" font-family="CourierNew" font-size="14" text-anchor="middle">ε</text></g><g id="node4" class="node"><title>LoopEndState</title><g id="a_node4"><a target="_parent" xlink:href="../LoopEndState.html" xlink:title="\N"><polygon fill="none" stroke="#000" points="832.625 -119.942 832.625 -155.942 940.596 -155.942 940.596 -119.942 832.625 -119.942"/><text x="886.611" y="-135.242" font-family="CourierNew" font-size="14" text-anchor="middle">LoopEndState</text></a></g></g><g id="edge11" class="edge"><title>PlusLoopbackState:alt1-&gt;LoopEndState</title><path fill="none" stroke="#000" d="M790.131,-137.942C800.557,-137.942 811.624,-137.942 822.387,-137.942"/><polygon fill="#000" stroke="#000" points="822.582 -141.442 832.582 -137.942 822.582 -134.442 822.582 -141.442"/><text x="811.378" y="-143.23" font-family="CourierNew" font-size="14" text-anchor="middle">ε</text></g><g id="node3" class="node"><title>BlockEndState</title><g id="a_node3"><a target="_parent" xlink:href="../BlockEndState.html" xlink:title="\N"><polygon fill="none" stroke="#000" points="449.134 -123.942 449.134 -159.942 559.716 -159.942 559.716 -123.942 449.134 -123.942"/><text x="504.425" y="-139.242" font-family="CourierNew" font-size="14" text-anchor="middle">BlockEndState</text></a></g></g><g id="edge9" class="edge"><title>BlockEndState-&gt;PlusLoopbackState</title><path fill="none" stroke="#000" d="M559.799,-137.357C569.944,-136.501 580.849,-135.582 591.908,-134.649"/><polygon fill="#000" stroke="#000" points="592.42 -138.118 602.09 -133.79 591.832 -131.143 592.42 -138.118"/><text x="580.963" y="-141.23" font-family="CourierNew" font-size="14" text-anchor="middle">ε</text></g><g id="node9" class="node"><title>end</title><ellipse cx="1011.26" cy="-137.942" fill="none" stroke="#000" stroke-dasharray="5 2" rx="28.345" ry="18"/><text x="1011.26" y="-134.986" font-family="CourierNew" font-size="14" text-anchor="middle">end</text></g><g id="edge2" class="edge"><title>LoopEndState-&gt;end</title><path fill="none" stroke="#000" d="M940.694,-137.942C951.553,-137.942 962.764,-137.942 972.93,-137.942"/><polygon fill="#000" stroke="#000" points="973.088 -141.442 983.088 -137.942 973.088 -134.442 973.088 -141.442"/><text x="961.843" y="-143.23" font-family="CourierNew" font-size="14" text-anchor="middle">ε</text></g><g id="edge4" class="edge"><title>content1-&gt;BlockEndState</title><path fill="none" stroke="#000" stroke-dasharray="5 2" d="M396.523,-211.606C415.478,-199.254 444.106,-180.598 466.968,-165.7"/><polygon fill="#000" stroke="#000" points="468.948 -168.587 475.415 -160.195 465.126 -162.722 468.948 -168.587"/></g><g id="edge6" class="edge"><title>content2-&gt;BlockEndState</title><path fill="none" stroke="#000" stroke-dasharray="5 2" d="M404.643,-164.433C414.899,-162.098 426.922,-159.361 438.982,-156.615"/><polygon fill="#000" stroke="#000" points="440.109 -159.948 449.082 -154.315 438.555 -153.122 440.109 -159.948"/></g><g id="edge8" class="edge"><title>more-&gt;BlockEndState</title><path fill="none" stroke="#000" stroke-dasharray="5 2" d="M404.961,-122.614C415.167,-124.618 427.093,-126.959 439.051,-129.306"/><polygon fill="#000" stroke="#000" points="438.58 -132.78 449.067 -131.272 439.929 -125.911 438.58 -132.78"/></g><g id="node8" class="node"><title>begin</title><ellipse cx="36.887" cy="-153.942" fill="none" stroke="#000" stroke-dasharray="5 2" rx="36.774" ry="18"/><text x="36.887" y="-150.986" font-family="CourierNew" font-size="14" text-anchor="middle">begin</text></g><g id="edge1" class="edge"><title>begin-&gt;PlusBlockStartState</title><path fill="none" stroke="#000" stroke-dasharray="5 2" d="M74.1218,-153.942C82.1526,-153.942 91.0531,-153.942 100.324,-153.942"/><polygon fill="#000" stroke="#000" points="100.506 -157.442 110.506 -153.942 100.506 -150.442 100.506 -157.442"/></g></g></svg>