<svg xmlns="http://www.w3.org/2000/svg" xmlns:xlink="http://www.w3.org/1999/xlink" width="1075pt" height="232pt" viewBox="0 0 1075.43 232.49"><g id="graph0" class="graph" transform="scale(1 1) rotate(0) translate(18 214.488)"><polygon fill="#fff" stroke="none" points="-18 18 -18 -214.488 1057.43 -214.488 1057.43 18 -18 18"/><g id="clust1" class="cluster"><title>cluster0</title><polygon fill="none" stroke="none" points="102.774 -8 102.774 -188 948.596 -188 948.596 -8 102.774 -8"/></g><g id="node1" class="node"><title>PlusBlockStartState</title><g id="a_node1"><a target="_parent" xlink:href="../PlusBlockStartState.html" xlink:title="{PlusBlockStartState | {&lt;alt1&gt; alt 1 |&lt;alt2&gt; alt 2 | ·\n·\n· |&lt;altn&gt; alt n}}"><polygon fill="none" stroke="#000" points="110.774 -21.535 110.774 -152.465 300.985 -152.465 300.985 -21.535 110.774 -21.535"/><text x="182.731" y="-84.044" font-family="CourierNew" font-size="14" text-anchor="middle">PlusBlockStartState</text><polyline fill="none" stroke="#000" points="254.688 -21.535 254.688 -152.465"/><text x="277.836" y="-137.265" font-family="CourierNew" font-size="14" text-anchor="middle">alt 1</text><polyline fill="none" stroke="#000" points="254.688 -127.977 300.985 -127.977"/><text x="277.836" y="-112.777" font-family="CourierNew" font-size="14" text-anchor="middle">alt 2</text><polyline fill="none" stroke="#000" points="254.688 -103.488 300.985 -103.488"/><text x="277.836" y="-88.288" font-family="CourierNew" font-size="14" text-anchor="middle">·</text><text x="277.836" y="-71.8" font-family="CourierNew" font-size="14" text-anchor="middle">·</text><text x="277.836" y="-55.312" font-family="CourierNew" font-size="14" text-anchor="middle">·</text><polyline fill="none" stroke="#000" points="254.688 -46.023 300.985 -46.023"/><text x="277.836" y="-30.823" font-family="CourierNew" font-size="14" text-anchor="middle">alt n</text></a></g></g><g id="node5" class="node"><title>content1</title><ellipse cx="375.059" cy="-142" fill="none" stroke="#000" stroke-dasharray="5 2" rx="31.661" ry="18"/><text x="375.059" y="-139.044" font-family="CourierNew" font-size="14" text-anchor="middle">alt 1</text></g><g id="edge3" class="edge"><title>PlusBlockStartState:alt1-&gt;content1</title><path fill="none" stroke="#000" d="M300.985,-140C311.455,-140 322.766,-140.208 333.289,-140.489"/><polygon fill="#000" stroke="#000" points="333.389 -143.994 343.488 -140.79 333.596 -136.997 333.389 -143.994"/><text x="322.232" y="-145.288" font-family="CourierNew" font-size="14" text-anchor="middle">ε</text></g><g id="node6" class="node"><title>content2</title><ellipse cx="375.059" cy="-88" fill="none" stroke="#000" stroke-dasharray="5 2" rx="31.661" ry="18"/><text x="375.059" y="-85.044" font-family="CourierNew" font-size="14" text-anchor="middle">alt 2</text></g><g id="edge5" class="edge"><title>PlusBlockStartState:alt2-&gt;content2</title><path fill="none" stroke="#000" d="M300.985,-116C310.982,-116 309.985,-106.863 318.985,-102.512 323.992,-100.091 329.458,-98.0329 334.939,-96.2957"/><polygon fill="#000" stroke="#000" points="336.069 -99.613 344.726 -93.506 334.149 -92.882 336.069 -99.613"/><text x="322.232" y="-108.288" font-family="CourierNew" font-size="14" text-anchor="middle">ε</text></g><g id="node7" class="node"><title>more</title><ellipse cx="375.059" cy="-34" fill="none" stroke="#000" stroke-dasharray="5 2" rx="31.437" ry="18"/><text x="375.059" y="-31.044" font-family="CourierNew" font-size="14" text-anchor="middle">alt n</text></g><g id="edge7" class="edge"><title>PlusBlockStartState:altn-&gt;more</title><path fill="none" stroke="#000" d="M300.985,-34C311.451,-34 322.761,-34 333.283,-34"/><polygon fill="#000" stroke="#000" points="333.483 -37.5 343.483 -34 333.483 -30.5 333.483 -37.5"/><text x="322.232" y="-39.288" font-family="CourierNew" font-size="14" text-anchor="middle">ε</text></g><g id="node2" class="node"><title>PlusLoopbackState</title><g id="a_node2"><a target="_parent" xlink:href="../PlusLoopbackState.html" xlink:title="{PlusLoopbackState | {&lt;alt1&gt; alt 1 |&lt;alt2&gt; alt 2}}"><polygon fill="none" stroke="#000" points="602.21 -104.512 602.21 -153.488 790.131 -153.488 790.131 -104.512 602.21 -104.512"/><text x="673.022" y="-126.044" font-family="CourierNew" font-size="14" text-anchor="middle">PlusLoopbackState</text><polyline fill="none" stroke="#000" points="743.834 -104.512 743.834 -153.488"/><text x="766.983" y="-138.288" font-family="CourierNew" font-size="14" text-anchor="middle">alt 1</text><polyline fill="none" stroke="#000" points="743.834 -129 790.131 -129"/><text x="766.983" y="-113.8" font-family="CourierNew" font-size="14" text-anchor="middle">alt 2</text></a></g></g><g id="edge10" class="edge"><title>PlusLoopbackState:alt1:n-&gt;PlusBlockStartState:n</title><path fill="none" stroke="#000" d="M767.171,-154C767.171,-166.273 269.729,-202.945 211.435,-161.643"/><polygon fill="#000" stroke="#000" points="214.231 -159.52 205.879 -153 208.342 -163.305 214.231 -159.52"/><text x="427.887" y="-185.288" font-family="CourierNew" font-size="14" text-anchor="middle">ε</text></g><g id="node4" class="node"><title>LoopEndState</title><g id="a_node4"><a target="_parent" xlink:href="../LoopEndState.html" xlink:title="\N"><polygon fill="none" stroke="#000" points="832.625 -99 832.625 -135 940.596 -135 940.596 -99 832.625 -99"/><text x="886.611" y="-114.3" font-family="CourierNew" font-size="14" text-anchor="middle">LoopEndState</text></a></g></g><g id="edge11" class="edge"><title>PlusLoopbackState:alt2-&gt;LoopEndState</title><path fill="none" stroke="#000" d="M790.131,-117C800.557,-117 811.624,-117 822.387,-117"/><polygon fill="#000" stroke="#000" points="822.582 -120.5 832.582 -117 822.582 -113.5 822.582 -120.5"/><text x="811.378" y="-122.288" font-family="CourierNew" font-size="14" text-anchor="middle">ε</text></g><g id="node3" class="node"><title>BlockEndState</title><g id="a_node3"><a target="_parent" xlink:href="../BlockEndState.html" xlink:title="\N"><polygon fill="none" stroke="#000" points="449.134 -99 449.134 -135 559.716 -135 559.716 -99 449.134 -99"/><text x="504.425" y="-114.3" font-family="CourierNew" font-size="14" text-anchor="middle">BlockEndState</text></a></g></g><g id="edge9" class="edge"><title>BlockEndState-&gt;PlusLoopbackState</title><path fill="none" stroke="#000" d="M559.799,-120.439C569.944,-121.08 580.849,-121.77 591.908,-122.469"/><polygon fill="#000" stroke="#000" points="591.889 -125.975 602.09 -123.113 592.331 -118.989 591.889 -125.975"/><text x="580.963" y="-127.288" font-family="CourierNew" font-size="14" text-anchor="middle">ε</text></g><g id="node9" class="node"><title>end</title><ellipse cx="1011.26" cy="-117" fill="none" stroke="#000" stroke-dasharray="5 2" rx="28.345" ry="18"/><text x="1011.26" y="-114.044" font-family="CourierNew" font-size="14" text-anchor="middle">end</text></g><g id="edge2" class="edge"><title>LoopEndState-&gt;end</title><path fill="none" stroke="#000" d="M940.694,-117C951.553,-117 962.764,-117 972.93,-117"/><polygon fill="#000" stroke="#000" points="973.088 -120.5 983.088 -117 973.088 -113.5 973.088 -120.5"/><text x="961.843" y="-122.288" font-family="CourierNew" font-size="14" text-anchor="middle">ε</text></g><g id="edge4" class="edge"><title>content1-&gt;BlockEndState</title><path fill="none" stroke="#000" stroke-dasharray="5 2" d="M405.28,-136.264C415.435,-134.271 427.265,-131.949 439.122,-129.622"/><polygon fill="#000" stroke="#000" points="439.915 -133.033 449.053 -127.672 438.566 -126.164 439.915 -133.033"/></g><g id="edge6" class="edge"><title>content2-&gt;BlockEndState</title><path fill="none" stroke="#000" stroke-dasharray="5 2" d="M404.643,-94.5082C414.899,-96.8435 426.922,-99.581 438.982,-102.327"/><polygon fill="#000" stroke="#000" points="438.555 -105.819 449.082 -104.627 440.109 -98.994 438.555 -105.819"/></g><g id="edge8" class="edge"><title>more-&gt;BlockEndState</title><path fill="none" stroke="#000" stroke-dasharray="5 2" d="M396.523,-47.3354C415.478,-59.688 444.106,-78.3439 466.968,-93.242"/><polygon fill="#000" stroke="#000" points="465.126 -96.219 475.415 -98.747 468.948 -90.355 465.126 -96.219"/></g><g id="node8" class="node"><title>begin</title><ellipse cx="36.887" cy="-87" fill="none" stroke="#000" stroke-dasharray="5 2" rx="36.774" ry="18"/><text x="36.887" y="-84.044" font-family="CourierNew" font-size="14" text-anchor="middle">begin</text></g><g id="edge1" class="edge"><title>begin-&gt;PlusBlockStartState</title><path fill="none" stroke="#000" stroke-dasharray="5 2" d="M74.1218,-87C82.1526,-87 91.0531,-87 100.324,-87"/><polygon fill="#000" stroke="#000" points="100.506 -90.5 110.506 -87 100.506 -83.5 100.506 -90.5"/></g></g></svg>