<svg xmlns="http://www.w3.org/2000/svg" xmlns:xlink="http://www.w3.org/1999/xlink" width="427pt" height="96" viewBox="0 0 427 72"><g id="graph0" class="graph" transform="scale(1 1) rotate(0) translate(18 54)"><polygon fill="#fff" stroke="none" points="-18 18 -18 -54 408.996 -54 408.996 18 -18 18"/><g id="node1" class="node"><title>RuleStartState</title><g id="a_node1"><a target="_parent" xlink:href="../RuleStartState.html" xlink:title="RuleStartState"><polygon fill="none" stroke="#000" points="110.607 -36 -.203 -36 -.203 0 110.607 0 110.607 -36"/><text x="55.202" y="-15.044" font-family="CourierNew" font-size="14" text-anchor="middle">RuleStartState</text></a></g></g><g id="node3" class="node"><title>content</title><ellipse cx="198.888" cy="-18" fill="none" stroke="#000" stroke-dasharray="5 2" rx="45.978" ry="18"/><text x="198.888" y="-15.044" font-family="CourierNew" font-size="14" text-anchor="middle">content</text></g><g id="edge1" class="edge"><title>RuleStartState-&gt;content</title><path fill="none" stroke="#000" d="M110.576,-18C120.994,-18 131.916,-18 142.369,-18"/><polygon fill="#000" stroke="#000" points="142.631 -21.5 152.631 -18 142.631 -14.5 142.631 -21.5"/><text x="131.651" y="-23.288" font-family="CourierNew" font-size="14" text-anchor="middle">ε</text></g><g id="node2" class="node"><title>RuleStopState</title><g id="a_node2"><a target="_parent" xlink:href="../RuleStopState.html" xlink:title="RuleStopState"><polygon fill="none" stroke="#000" points="391.055 -36 281.817 -36 281.817 0 391.055 0 391.055 -36"/><text x="336.436" y="-15.044" font-family="CourierNew" font-size="14" text-anchor="middle">RuleStopState</text></a></g></g><g id="edge2" class="edge"><title>content-&gt;RuleStopState</title><path fill="none" stroke="#000" stroke-dasharray="5 2" d="M245.023,-18C253.529,-18 262.571,-18 271.524,-18"/><polygon fill="#000" stroke="#000" points="271.56 -21.5 281.56 -18 271.56 -14.5 271.56 -21.5"/></g></g></svg>