<svg xmlns="http://www.w3.org/2000/svg" xmlns:xlink="http://www.w3.org/1999/xlink" width="413pt" height="184" viewBox="0 0 496.06 166"><g id="graph0" class="graph" transform="scale(0.833333 0.833333) rotate(0) translate(4 162)"><polygon fill="#fff" stroke="none" points="-4 4 -4 -162 492.057 -162 492.057 4 -4 4"/><g id="clust5" class="cluster"><title>clusterRes</title><polygon fill="none" stroke="none" points="330.057 -8 330.057 -150 480.057 -150 480.057 -8 330.057 -8"/></g><g id="node1" class="node"><title>left</title><polygon fill="none" stroke="#000" points="29.057 -98 58.171 -131 -.057 -131 29.057 -98"/><text x="29.057" y="-115.8" font-family="Times,serif" font-size="14" text-anchor="middle">x</text></g><g id="node2" class="node"><title>leftroot</title><text x="29.057" y="-34.3" font-family="Times,serif" font-size="14" text-anchor="middle">a</text></g><g id="edge1" class="edge"><title>left-&gt;leftroot</title><path fill="none" stroke="#000" d="M29.0571,-87.5313C29.0571,-76.9787 29.0571,-65.6112 29.0571,-56.5853"/><polygon fill="#000" stroke="#000" points="25.557 -87.695 29.057 -97.695 32.557 -87.695 25.557 -87.695"/></g><g id="node3" class="node"><title>temp1</title><text x="103.057" y="-115.8" font-family="Times,serif" font-size="14" text-anchor="middle">+</text></g><g id="node4" class="node"><title>right</title><polygon fill="none" stroke="#000" points="177.057 -98 206.171 -131 147.943 -131 177.057 -98"/><text x="177.057" y="-115.8" font-family="Times,serif" font-size="14" text-anchor="middle">y</text></g><g id="node5" class="node"><title>rightroot</title><text x="177.057" y="-34.3" font-family="Times,serif" font-size="14" text-anchor="middle">b</text></g><g id="edge2" class="edge"><title>right-&gt;rightroot</title><path fill="none" stroke="#000" d="M177.057,-87.5313C177.057,-76.9787 177.057,-65.6112 177.057,-56.5853"/><polygon fill="#000" stroke="#000" points="173.557 -87.695 177.057 -97.695 180.557 -87.695 173.557 -87.695"/></g><g id="node6" class="node"><title>temp2b</title><ellipse cx="226.057" cy="-120" fill="none" stroke="none" rx="1.8" ry="1.8"/></g><g id="node7" class="node"><title>temp2c</title><ellipse cx="318.057" cy="-120" fill="none" stroke="none" rx="1.8" ry="1.8"/></g><g id="edge3" class="edge"><title>temp2b-&gt;temp2c</title><path fill="none" stroke="#000" d="M227.979,-120C237.894,-120 283.662,-120 305.884,-120"/><polygon fill="#000" stroke="#000" points="306.146 -123.5 316.146 -120 306.146 -116.5 306.146 -123.5"/><text x="272.057" y="-125.8" fill="#fffffe" font-family="Times,serif" font-size="14" text-anchor="middle">wwwwwww</text></g><g id="node8" class="node"><title>resulttree1</title><polygon fill="none" stroke="#000" points="367.057 -98 396.171 -131 337.943 -131 367.057 -98"/><text x="367.057" y="-115.8" font-family="Times,serif" font-size="14" text-anchor="middle">x</text></g><g id="node10" class="node"><title>result</title><polygon fill="none" stroke="#000" points="384.057 -16.5 384.057 -60.5 438.057 -60.5 438.057 -16.5 384.057 -16.5"/><polyline fill="none" stroke="#000" points="384.057 -38.5 410.271 -38.5"/><text x="397.164" y="-23.3" font-family="Times,serif" font-size="14" text-anchor="middle">a</text><polyline fill="none" stroke="#000" points="410.271 -16.5 410.271 -60.5"/><polyline fill="none" stroke="#000" points="410.271 -38.5 437.271 -38.5"/><text x="423.771" y="-23.3" font-family="Times,serif" font-size="14" text-anchor="middle">b</text></g><g id="edge4" class="edge"><title>resulttree1:s-&gt;result:a:n</title><path fill="none" stroke="#000" d="M370.043,-88.2343C377.631,-77.9044 397.057,-78.0358 397.057,-61"/><polygon fill="#000" stroke="#000" points="366.634 -87.414 367.057 -98 373.328 -89.461 366.634 -87.414"/></g><g id="node9" class="node"><title>resulttree2</title><polygon fill="none" stroke="#000" points="443.057 -98 472.171 -131 413.943 -131 443.057 -98"/><text x="443.057" y="-115.8" font-family="Times,serif" font-size="14" text-anchor="middle">y</text></g><g id="edge5" class="edge"><title>resulttree2:s-&gt;result:b:n</title><path fill="none" stroke="#000" d="M440.727,-88.1319C435.654,-78.6185 424.057,-75.4421 424.057,-61"/><polygon fill="#000" stroke="#000" points="437.353 -89.072 443.057 -98 444.166 -87.463 437.353 -89.072"/></g></g></svg>