<svg xmlns="http://www.w3.org/2000/svg" xmlns:xlink="http://www.w3.org/1999/xlink" width="540" height="193pt" viewBox="0 0 486.06 231"><g id="graph0" class="graph" transform="scale(0.833333 0.833333) rotate(0) translate(4 227)"><polygon fill="#fff" stroke="none" points="-4 4 -4 -227 482.057 -227 482.057 4 -4 4"/><g id="clust6" class="cluster"><title>clusterRes</title><polygon fill="none" stroke="none" points="328.057 -8 328.057 -215 470.057 -215 470.057 -8 328.057 -8"/></g><g id="node1" class="node"><title>lefttree</title></g><g id="node2" class="node"><title>left</title><polygon fill="none" stroke="#000" points="29.057 -89.5 58.171 -122.5 -.057 -122.5 29.057 -89.5"/><text x="29.057" y="-107.3" font-family="Times,serif" font-size="14" text-anchor="middle">x</text></g><g id="edge1" class="edge"><title>lefttree-&gt;left</title></g><g id="node3" class="node"><title>leftroot</title><text x="29.057" y="-29.8" font-family="Times,serif" font-size="14" text-anchor="middle">a</text></g><g id="edge2" class="edge"><title>left-&gt;leftroot</title><path fill="none" stroke="#000" d="M29.0571,-79.398C29.0571,-70.1628 29.0571,-60.3795 29.0571,-52.3538"/><polygon fill="#000" stroke="#000" points="25.557 -79.469 29.057 -89.469 32.557 -79.469 25.557 -79.469"/></g><g id="node4" class="node"><title>optree</title></g><g id="node5" class="node"><title>temp1</title><text x="103.057" y="-107.3" font-family="Times,serif" font-size="14" text-anchor="middle">+</text></g><g id="edge3" class="edge"><title>optree-&gt;temp1</title></g><g id="node6" class="node"><title>righttree</title></g><g id="node7" class="node"><title>right</title><polygon fill="none" stroke="#000" points="177.057 -89.5 206.171 -122.5 147.943 -122.5 177.057 -89.5"/><text x="177.057" y="-107.3" font-family="Times,serif" font-size="14" text-anchor="middle">y</text></g><g id="edge4" class="edge"><title>righttree-&gt;right</title></g><g id="node8" class="node"><title>rightroot</title><text x="177.057" y="-29.8" font-family="Times,serif" font-size="14" text-anchor="middle">a</text></g><g id="edge5" class="edge"><title>right-&gt;rightroot</title><path fill="none" stroke="#000" d="M177.057,-79.398C177.057,-70.1628 177.057,-60.3795 177.057,-52.3538"/><polygon fill="#000" stroke="#000" points="173.557 -79.469 177.057 -89.469 180.557 -79.469 173.557 -79.469"/></g><g id="node9" class="node"><title>temp2a</title><ellipse cx="253.057" cy="-189" fill="none" stroke="none" rx="1.8" ry="1.8"/></g><g id="node10" class="node"><title>temp2b</title><ellipse cx="226.057" cy="-111.5" fill="none" stroke="none" rx="1.8" ry="1.8"/></g><g id="edge6" class="edge"><title>temp2a-&gt;temp2b</title></g><g id="node11" class="node"><title>temp2c</title><ellipse cx="318.057" cy="-111.5" fill="none" stroke="none" rx="1.8" ry="1.8"/></g><g id="edge7" class="edge"><title>temp2a-&gt;temp2c</title></g><g id="edge8" class="edge"><title>temp2b-&gt;temp2c</title><path fill="none" stroke="#000" d="M227.979,-111.5C237.894,-111.5 283.662,-111.5 305.884,-111.5"/><polygon fill="#000" stroke="#000" points="306.146 -115 316.146 -111.5 306.146 -108 306.146 -115"/><text x="272.057" y="-117.3" fill="#fffffe" font-family="Times,serif" font-size="14" text-anchor="middle">wwwwwww</text></g><g id="node12" class="node"><title>resulttree1</title><polygon fill="none" stroke="#000" points="363.057 -171 390.057 -198 336.057 -198 363.057 -171"/></g><g id="node14" class="node"><title>result</title><polygon fill="none" stroke="#000" points="377.057 -89.5 377.057 -133.5 431.057 -133.5 431.057 -89.5 377.057 -89.5"/><polyline fill="none" stroke="#000" points="377.057 -111.5 404.057 -111.5"/><text x="390.557" y="-96.3" font-family="Times,serif" font-size="14" text-anchor="middle">x</text><polyline fill="none" stroke="#000" points="404.057 -89.5 404.057 -133.5"/><polyline fill="none" stroke="#000" points="404.057 -111.5 431.057 -111.5"/><text x="417.557" y="-96.3" font-family="Times,serif" font-size="14" text-anchor="middle">y</text></g><g id="edge9" class="edge"><title>resulttree1:s-&gt;result:x:n</title><path fill="none" stroke="#000" d="M365.947,-161.171C372.912,-151.159 390.057,-150.222 390.057,-134"/><polygon fill="#000" stroke="#000" points="362.52 -160.419 363.057 -171 369.235 -162.393 362.52 -160.419"/></g><g id="node13" class="node"><title>resulttree2</title><polygon fill="none" stroke="#000" points="435.057 -171 462.057 -198 408.057 -198 435.057 -171"/></g><g id="edge10" class="edge"><title>resulttree2:s-&gt;result:y:n</title><path fill="none" stroke="#000" d="M432.835,-160.96C428.227,-151.65 418.057,-147.997 418.057,-134"/><polygon fill="#000" stroke="#000" points="429.478 -161.993 435.057 -171 436.313 -160.48 429.478 -161.993"/></g><g id="node15" class="node"><title>resultroot</title><text x="404.057" y="-29.8" font-family="Times,serif" font-size="14" text-anchor="middle">a&apos;</text></g><g id="edge11" class="edge"><title>result-&gt;resultroot</title><path fill="none" stroke="#000" d="M404.057,-79.398C404.057,-70.1628 404.057,-60.3795 404.057,-52.3538"/><polygon fill="#000" stroke="#000" points="400.557 -79.469 404.057 -89.469 407.557 -79.469 400.557 -79.469"/></g></g></svg>