<svg xmlns="http://www.w3.org/2000/svg" xmlns:xlink="http://www.w3.org/1999/xlink" width="350pt" height="131pt" viewBox="0 0 420.06 157"><g id="graph0" class="graph" transform="scale(0.833333 0.833333) rotate(0) translate(4 153)"><polygon fill="#fff" stroke="none" points="-4 4 -4 -153 416.057 -153 416.057 4 -4 4"/><g id="clust5" class="cluster"><title>clusterRes</title><polygon fill="none" stroke="none" points="330.057 -8 330.057 -141 404.057 -141 404.057 -8 330.057 -8"/></g><g id="node1" class="node"><title>left</title><polygon fill="none" stroke="#000" points="29.057 -89 58.171 -122 -.057 -122 29.057 -89"/><text x="29.057" y="-106.8" font-family="Times,serif" font-size="14" text-anchor="middle">x</text></g><g id="node2" class="node"><title>leftroot</title><text x="29.057" y="-29.8" font-family="Times,serif" font-size="14" text-anchor="middle">a</text></g><g id="edge1" class="edge"><title>left-&gt;leftroot</title><path fill="none" stroke="#000" d="M29.0571,-78.4376C29.0571,-69.3919 29.0571,-59.8734 29.0571,-52.0597"/><polygon fill="#000" stroke="#000" points="25.557 -78.709 29.057 -88.709 32.557 -78.709 25.557 -78.709"/></g><g id="node3" class="node"><title>temp1</title><text x="103.057" y="-106.8" font-family="Times,serif" font-size="14" text-anchor="middle">+</text></g><g id="node4" class="node"><title>right</title><polygon fill="none" stroke="#000" points="177.057 -89 206.171 -122 147.943 -122 177.057 -89"/><text x="177.057" y="-106.8" font-family="Times,serif" font-size="14" text-anchor="middle">x</text></g><g id="node5" class="node"><title>rightroot</title><text x="177.057" y="-29.8" font-family="Times,serif" font-size="14" text-anchor="middle">a</text></g><g id="edge2" class="edge"><title>right-&gt;rightroot</title><path fill="none" stroke="#000" d="M177.057,-78.4376C177.057,-69.3919 177.057,-59.8734 177.057,-52.0597"/><polygon fill="#000" stroke="#000" points="173.557 -78.709 177.057 -88.709 180.557 -78.709 173.557 -78.709"/></g><g id="node6" class="node"><title>temp2b</title><ellipse cx="226.057" cy="-111" fill="none" stroke="none" rx="1.8" ry="1.8"/></g><g id="node7" class="node"><title>temp2c</title><ellipse cx="318.057" cy="-111" fill="none" stroke="none" rx="1.8" ry="1.8"/></g><g id="edge3" class="edge"><title>temp2b-&gt;temp2c</title><path fill="none" stroke="#000" d="M227.979,-111C237.894,-111 283.662,-111 305.884,-111"/><polygon fill="#000" stroke="#000" points="306.146 -114.5 316.146 -111 306.146 -107.5 306.146 -114.5"/><text x="272.057" y="-116.8" fill="#fffffe" font-family="Times,serif" font-size="14" text-anchor="middle">wwwwwww</text></g><g id="node8" class="node"><title>result</title><polygon fill="none" stroke="#000" points="367.057 -89 396.171 -122 337.943 -122 367.057 -89"/><text x="367.057" y="-106.8" font-family="Times,serif" font-size="14" text-anchor="middle">x</text></g><g id="node9" class="node"><title>resultroot</title><text x="367.057" y="-29.8" font-family="Times,serif" font-size="14" text-anchor="middle">a</text></g><g id="edge4" class="edge"><title>result-&gt;resultroot</title><path fill="none" stroke="#000" d="M367.057,-78.4376C367.057,-69.3919 367.057,-59.8734 367.057,-52.0597"/><polygon fill="#000" stroke="#000" points="363.557 -78.709 367.057 -88.709 370.557 -78.709 363.557 -78.709"/></g></g></svg>