<svg xmlns="http://www.w3.org/2000/svg" xmlns:xlink="http://www.w3.org/1999/xlink" width="542pt" height="284" viewBox="0 0 541.67 213.33"><g id="graph0" class="graph" transform="scale(0.833333 0.833333) rotate(0) translate(4 252)"><polygon fill="#fff" stroke="none" points="-4 4 -4 -252 646 -252 646 4 -4 4"/><g id="clust1" class="cluster"><title>clusterA</title><polygon fill="none" stroke="none" points="8 -94 8 -232 150 -232 150 -94 8 -94"/></g><g id="clust5" class="cluster"><title>clusterB</title><polygon fill="none" stroke="none" points="220 -94 220 -232 362 -232 362 -94 220 -94"/></g><g id="clust10" class="cluster"><title>clusterC</title><polygon fill="none" stroke="none" points="476 -8 476 -240 634 -240 634 -8 476 -8"/></g><g id="clust11" class="cluster"><title>clusterSubC</title><polygon fill="none" stroke="none" points="484 -100 484 -232 626 -232 626 -100 484 -100"/></g><g id="node1" class="node"><title>A_u1</title><polygon fill="none" stroke="#000" points="43 -188 70 -215 16 -215 43 -188"/><text x="43" y="-202.3" font-family="Times New Roman,serif" font-size="14" text-anchor="middle">u</text></g><g id="node3" class="node"><title>A_left</title><polygon fill="none" stroke="#000" points="58 -103 58 -149 112 -149 112 -103 58 -103"/><polyline fill="none" stroke="#000" points="58 -126 84 -126"/><text x="71" y="-110.8" font-family="Times New Roman,serif" font-size="14" text-anchor="middle">a</text><polyline fill="none" stroke="#000" points="84 -103 84 -149"/><polyline fill="none" stroke="#000" points="84 -126 112 -126"/><text x="98" y="-110.8" font-family="Times New Roman,serif" font-size="14" text-anchor="middle">b</text></g><g id="edge1" class="edge"><title>A_u1:s-&gt;A_left:a:n</title><path fill="none" stroke="#000" d="M45.7871,-178.19C52.8694,-167.616 71,-166.881 71,-150"/><polygon fill="#000" stroke="#000" points="42.366 -177.424 43 -188 49.1 -179.337 42.366 -177.424"/></g><g id="node2" class="node"><title>A_v1</title><polygon fill="none" stroke="#000" points="115 -188 142 -215 88 -215 115 -188"/><text x="115" y="-202.3" font-family="Times New Roman,serif" font-size="14" text-anchor="middle">v</text></g><g id="edge2" class="edge"><title>A_v1:s-&gt;A_left:b:n</title><path fill="none" stroke="#000" d="M112.915,-178.005C108.376,-168.225 98,-164.455 98,-150"/><polygon fill="#000" stroke="#000" points="109.532 -178.925 115 -188 116.385 -177.496 109.532 -178.925"/></g><g id="node4" class="node"><title>temp0</title><ellipse cx="185" cy="-206" fill="none" stroke="none" rx="1.8" ry="1.8"/></g><g id="node5" class="node"><title>temp1</title><text x="185" y="-122.3" font-family="Times New Roman,serif" font-size="14" text-anchor="middle">+</text></g><g id="edge3" class="edge"><title>temp0-&gt;temp1</title></g><g id="node6" class="node"><title>A_w1</title><polygon fill="none" stroke="#000" points="255 -188 282 -215 228 -215 255 -188"/><text x="255" y="-202.3" font-family="Times New Roman,serif" font-size="14" text-anchor="middle">v</text></g><g id="node8" class="node"><title>A_right</title><polygon fill="none" stroke="#000" points="269 -103 269 -149 323 -149 323 -103 269 -103"/><polyline fill="none" stroke="#000" points="269 -126 296 -126"/><text x="282.5" y="-110.8" font-family="Times New Roman,serif" font-size="14" text-anchor="middle">b</text><polyline fill="none" stroke="#000" points="296 -103 296 -149"/><polyline fill="none" stroke="#000" points="296 -126 323 -126"/><text x="309.5" y="-110.8" font-family="Times New Roman,serif" font-size="14" text-anchor="middle">d</text></g><g id="edge4" class="edge"><title>A_w1:s-&gt;A_right:b:n</title><path fill="none" stroke="#000" d="M257.688,-178.265C264.517,-167.703 282,-166.671 282,-150"/><polygon fill="#000" stroke="#000" points="254.287 -177.429 255 -188 261.035 -179.292 254.287 -177.429"/></g><g id="node7" class="node"><title>A_x1</title><polygon fill="none" stroke="#000" points="327 -188 354 -215 300 -215 327 -188"/><text x="327" y="-202.3" font-family="Times New Roman,serif" font-size="14" text-anchor="middle">u</text></g><g id="edge5" class="edge"><title>A_x1:s-&gt;A_right:d:n</title><path fill="none" stroke="#000" d="M324.915,-178.005C320.376,-168.225 310,-164.455 310,-150"/><polygon fill="#000" stroke="#000" points="321.532 -178.925 327 -188 328.385 -177.496 321.532 -178.925"/></g><g id="node9" class="node"><title>temp2a</title><ellipse cx="425" cy="-206" fill="none" stroke="none" rx="1.8" ry="1.8"/></g><g id="node10" class="node"><title>temp2b</title><ellipse cx="376" cy="-126" fill="none" stroke="none" rx="1.8" ry="1.8"/></g><g id="edge6" class="edge"><title>temp2a-&gt;temp2b</title></g><g id="node11" class="node"><title>temp2c</title><ellipse cx="466" cy="-126" fill="none" stroke="none" rx="1.8" ry="1.8"/></g><g id="edge7" class="edge"><title>temp2a-&gt;temp2c</title></g><g id="edge8" class="edge"><title>temp2b-&gt;temp2c</title><path fill="none" stroke="#000" d="M377.88,-126C387.579,-126 432.352,-126 454.091,-126"/><polygon fill="#000" stroke="#000" points="454.131 -129.5 464.131 -126 454.131 -122.5 454.131 -129.5"/><text x="420.6" y="-132.8" fill="#fffffe" font-family="Times New Roman,serif" font-size="14" text-anchor="middle">wwwwwww</text></g><g id="node12" class="node"><title>A_u2</title><polygon fill="none" stroke="#000" points="555 -188 582 -215 528 -215 555 -188"/><text x="555" y="-202.3" font-family="Times New Roman,serif" font-size="14" text-anchor="middle">u</text></g><g id="node13" class="node"><title>A_ut1</title><ellipse cx="492" cy="-126" fill="none" stroke="none" rx=".011" ry=".011"/></g><g id="edge12" class="edge"><title>A_u2:sw-&gt;A_ut1:n</title><path fill="none" stroke="#000" d="M538.623,-189.139C513.923,-167.717 492,-162.443 492,-127"/><polygon fill="#000" stroke="#000" points="536.294 -191.753 546 -196 541.061 -186.627 536.294 -191.753"/></g><g id="node14" class="node"><title>A_v2</title><polygon fill="none" stroke="#000" points="555 -108 582 -135 528 -135 555 -108"/><text x="555" y="-122.3" font-family="Times New Roman,serif" font-size="14" text-anchor="middle">v</text></g><g id="edge11" class="edge"><title>A_u2-&gt;A_v2</title></g><g id="node15" class="node"><title>A_ut2</title><ellipse cx="618" cy="-126" fill="none" stroke="none" rx=".011" ry=".011"/></g><g id="edge14" class="edge"><title>A_u2:se-&gt;A_ut2:n</title><path fill="none" stroke="#000" d="M571.377,-189.139C596.077,-167.717 618,-162.443 618,-127"/><polygon fill="#000" stroke="#000" points="568.939 -186.627 564 -196 573.706 -191.753 568.939 -186.627"/></g><g id="edge9" class="edge"><title>A_ut1-&gt;A_v2</title></g><g id="node16" class="node"><title>A_result</title><polygon fill="none" stroke="#000" points="519.5 -17 519.5 -63 590.5 -63 590.5 -17 519.5 -17"/><polyline fill="none" stroke="#000" points="519.5 -40 542.5 -40"/><text x="531" y="-24.8" font-family="Times New Roman,serif" font-size="14" text-anchor="middle">a</text><polyline fill="none" stroke="#000" points="542.5 -17 542.5 -63"/><polyline fill="none" stroke="#000" points="542.5 -40 566.5 -40"/><text x="554.5" y="-24.8" font-family="Times New Roman,serif" font-size="14" text-anchor="middle">b</text><polyline fill="none" stroke="#000" points="566.5 -17 566.5 -63"/><polyline fill="none" stroke="#000" points="566.5 -40 590.5 -40"/><text x="578.5" y="-24.8" font-family="Times New Roman,serif" font-size="14" text-anchor="middle">d</text></g><g id="edge16" class="edge"><title>A_ut1:s-&gt;A_result:a:n</title><path fill="none" stroke="#000" d="M492,-125C492,-92.8215 531,-96.1785 531,-64"/></g><g id="edge10" class="edge"><title>A_v2-&gt;A_ut2</title></g><g id="edge13" class="edge"><title>A_v2:s-&gt;A_result:b:n</title><path fill="none" stroke="#000" d="M554.893,-96.8866C554.635,-85.3549 554,-79.2333 554,-64"/><polygon fill="#000" stroke="#000" points="551.394 -97.038 555 -107 558.394 -96.963 551.394 -97.038"/></g><g id="edge15" class="edge"><title>A_v2:s-&gt;A_result:n</title></g><g id="edge17" class="edge"><title>A_ut2:s-&gt;A_result:d:n</title><path fill="none" stroke="#000" d="M618,-125C618,-92.8215 579,-96.1785 579,-64"/></g></g></svg>