<svg xmlns="http://www.w3.org/2000/svg" xmlns:xlink="http://www.w3.org/1999/xlink" width="864" height="180" viewBox="0 0 648.33 135"><g id="graph0" class="graph" transform="scale(0.833333 0.833333) rotate(0) translate(4 158)"><polygon fill="#fff" stroke="none" points="-4 4 -4 -158 774 -158 774 4 -4 4"/><g id="clust1" class="cluster"><title>clusterA</title><polygon fill="none" stroke="none" points="8 -8 8 -146 150 -146 150 -8 8 -8"/></g><g id="clust5" class="cluster"><title>clusterB</title><polygon fill="none" stroke="none" points="220 -8 220 -146 362 -146 362 -8 220 -8"/></g><g id="clust10" class="cluster"><title>clusterC</title><polygon fill="none" stroke="none" points="476 -8 476 -146 762 -146 762 -8 476 -8"/></g><g id="node1" class="node"><title>A_u1</title><polygon fill="none" stroke="#000" points="43 -102 70 -129 16 -129 43 -102"/><text x="43" y="-116.3" font-family="Times New Roman,serif" font-size="14" text-anchor="middle">u</text></g><g id="node3" class="node"><title>A_left</title><polygon fill="none" stroke="#000" points="58 -17 58 -63 112 -63 112 -17 58 -17"/><polyline fill="none" stroke="#000" points="58 -40 84 -40"/><text x="71" y="-24.8" font-family="Times New Roman,serif" font-size="14" text-anchor="middle">a</text><polyline fill="none" stroke="#000" points="84 -17 84 -63"/><polyline fill="none" stroke="#000" points="84 -40 112 -40"/><text x="98" y="-24.8" font-family="Times New Roman,serif" font-size="14" text-anchor="middle">b</text></g><g id="edge1" class="edge"><title>A_u1:s-&gt;A_left:a:n</title><path fill="none" stroke="#000" d="M45.7871,-92.19C52.8694,-81.616 71,-80.8812 71,-64"/><polygon fill="#000" stroke="#000" points="42.366 -91.424 43 -102 49.1 -93.337 42.366 -91.424"/></g><g id="node2" class="node"><title>A_v1</title><polygon fill="none" stroke="#000" points="115 -102 142 -129 88 -129 115 -102"/><text x="115" y="-116.3" font-family="Times New Roman,serif" font-size="14" text-anchor="middle">v</text></g><g id="edge2" class="edge"><title>A_v1:s-&gt;A_left:b:n</title><path fill="none" stroke="#000" d="M112.915,-92.0047C108.376,-82.2246 98,-78.4546 98,-64"/><polygon fill="#000" stroke="#000" points="109.532 -92.925 115 -102 116.385 -91.496 109.532 -92.925"/></g><g id="node4" class="node"><title>temp0</title><ellipse cx="185" cy="-120" fill="none" stroke="none" rx="1.8" ry="1.8"/></g><g id="node5" class="node"><title>temp1</title><text x="185" y="-36.3" font-family="Times New Roman,serif" font-size="14" text-anchor="middle">+</text></g><g id="edge3" class="edge"><title>temp0-&gt;temp1</title></g><g id="node6" class="node"><title>A_w1</title><polygon fill="none" stroke="#000" points="255 -102 282 -129 228 -129 255 -102"/><text x="255" y="-116.3" font-family="Times New Roman,serif" font-size="14" text-anchor="middle">w</text></g><g id="node8" class="node"><title>A_right</title><polygon fill="none" stroke="#000" points="270 -17 270 -63 324 -63 324 -17 270 -17"/><polyline fill="none" stroke="#000" points="270 -40 296 -40"/><text x="283" y="-24.8" font-family="Times New Roman,serif" font-size="14" text-anchor="middle">c</text><polyline fill="none" stroke="#000" points="296 -17 296 -63"/><polyline fill="none" stroke="#000" points="296 -40 324 -40"/><text x="310" y="-24.8" font-family="Times New Roman,serif" font-size="14" text-anchor="middle">d</text></g><g id="edge4" class="edge"><title>A_w1:s-&gt;A_right:c:n</title><path fill="none" stroke="#000" d="M257.787,-92.19C264.869,-81.616 283,-80.8812 283,-64"/><polygon fill="#000" stroke="#000" points="254.366 -91.424 255 -102 261.1 -93.337 254.366 -91.424"/></g><g id="node7" class="node"><title>A_x1</title><polygon fill="none" stroke="#000" points="327 -102 354 -129 300 -129 327 -102"/><text x="327" y="-116.3" font-family="Times New Roman,serif" font-size="14" text-anchor="middle">x</text></g><g id="edge5" class="edge"><title>A_x1:s-&gt;A_right:d:n</title><path fill="none" stroke="#000" d="M324.915,-92.0047C320.376,-82.2246 310,-78.4546 310,-64"/><polygon fill="#000" stroke="#000" points="321.532 -92.925 327 -102 328.385 -91.496 321.532 -92.925"/></g><g id="node9" class="node"><title>temp2a</title><ellipse cx="425" cy="-120" fill="none" stroke="none" rx="1.8" ry="1.8"/></g><g id="node10" class="node"><title>temp2b</title><ellipse cx="376" cy="-40" fill="none" stroke="none" rx="1.8" ry="1.8"/></g><g id="edge6" class="edge"><title>temp2a-&gt;temp2b</title></g><g id="node11" class="node"><title>temp2c</title><ellipse cx="466" cy="-40" fill="none" stroke="none" rx="1.8" ry="1.8"/></g><g id="edge7" class="edge"><title>temp2a-&gt;temp2c</title></g><g id="edge8" class="edge"><title>temp2b-&gt;temp2c</title><path fill="none" stroke="#000" d="M377.88,-40C387.579,-40 432.352,-40 454.091,-40"/><polygon fill="#000" stroke="#000" points="454.131 -43.5 464.131 -40 454.131 -36.5 454.131 -43.5"/><text x="420.6" y="-46.8" fill="#fffffe" font-family="Times New Roman,serif" font-size="14" text-anchor="middle">wwwwwww</text></g><g id="node12" class="node"><title>A_u2</title><polygon fill="none" stroke="#000" points="511 -102 538 -129 484 -129 511 -102"/><text x="511" y="-116.3" font-family="Times New Roman,serif" font-size="14" text-anchor="middle">u</text></g><g id="node16" class="node"><title>A_result</title><polygon fill="none" stroke="#000" points="578 -17 578 -63 672 -63 672 -17 578 -17"/><polyline fill="none" stroke="#000" points="578 -40 601 -40"/><text x="589.5" y="-24.8" font-family="Times New Roman,serif" font-size="14" text-anchor="middle">a</text><polyline fill="none" stroke="#000" points="601 -17 601 -63"/><polyline fill="none" stroke="#000" points="601 -40 625 -40"/><text x="613" y="-24.8" font-family="Times New Roman,serif" font-size="14" text-anchor="middle">b</text><polyline fill="none" stroke="#000" points="625 -17 625 -63"/><polyline fill="none" stroke="#000" points="625 -40 648 -40"/><text x="636.5" y="-24.8" font-family="Times New Roman,serif" font-size="14" text-anchor="middle">c</text><polyline fill="none" stroke="#000" points="648 -17 648 -63"/><polyline fill="none" stroke="#000" points="648 -40 672 -40"/><text x="660" y="-24.8" font-family="Times New Roman,serif" font-size="14" text-anchor="middle">d</text></g><g id="edge9" class="edge"><title>A_u2:s-&gt;A_result:a:n</title><path fill="none" stroke="#000" d="M513.42,-92.209C526.585,-70.8267 589,-98.4947 589,-64"/><polygon fill="#000" stroke="#000" points="510.002 -91.452 511 -102 516.797 -93.132 510.002 -91.452"/></g><g id="node13" class="node"><title>A_v2</title><polygon fill="none" stroke="#000" points="583 -102 610 -129 556 -129 583 -102"/><text x="583" y="-116.3" font-family="Times New Roman,serif" font-size="14" text-anchor="middle">v</text></g><g id="edge10" class="edge"><title>A_v2:s-&gt;A_result:b:n</title><path fill="none" stroke="#000" d="M585.769,-92.3467C593.195,-81.4371 613,-81.4831 613,-64"/><polygon fill="#000" stroke="#000" points="582.393 -91.423 583 -102 589.121 -93.352 582.393 -91.423"/></g><g id="node14" class="node"><title>A_w2</title><polygon fill="none" stroke="#000" points="655 -102 682 -129 628 -129 655 -102"/><text x="655" y="-116.3" font-family="Times New Roman,serif" font-size="14" text-anchor="middle">w</text></g><g id="edge11" class="edge"><title>A_w2:s-&gt;A_result:c:n</title><path fill="none" stroke="#000" d="M652.793,-91.9511C647.986,-82.1747 637,-78.5999 637,-64"/><polygon fill="#000" stroke="#000" points="649.436 -92.984 655 -102 656.273 -91.482 649.436 -92.984"/></g><g id="node15" class="node"><title>A_x2</title><polygon fill="none" stroke="#000" points="727 -102 754 -129 700 -129 727 -102"/><text x="727" y="-116.3" font-family="Times New Roman,serif" font-size="14" text-anchor="middle">x</text></g><g id="edge12" class="edge"><title>A_x2:s-&gt;A_result:d:n</title><path fill="none" stroke="#000" d="M724.121,-91.9425C711.297,-74.3722 660,-93.9545 660,-64"/><polygon fill="#000" stroke="#000" points="720.883 -93.349 727 -102 727.613 -91.423 720.883 -93.349"/></g></g></svg>