<svg xmlns="http://www.w3.org/2000/svg" xmlns:xlink="http://www.w3.org/1999/xlink" width="784" height="180" viewBox="0 0 588.33 135"><g id="graph0" class="graph" transform="scale(0.833333 0.833333) rotate(0) translate(4 158)"><polygon fill="#fff" stroke="none" points="-4 4 -4 -158 702 -158 702 4 -4 4"/><g id="clust1" class="cluster"><title>clusterA</title><polygon fill="none" stroke="none" points="8 -8 8 -146 150 -146 150 -8 8 -8"/></g><g id="clust5" class="cluster"><title>clusterB</title><polygon fill="none" stroke="none" points="220 -8 220 -146 362 -146 362 -8 220 -8"/></g><g id="clust10" class="cluster"><title>clusterC</title><polygon fill="none" stroke="none" points="476 -8 476 -146 690 -146 690 -8 476 -8"/></g><g id="node1" class="node"><title>A_u1</title><polygon fill="none" stroke="#000" points="43 -102 70 -129 16 -129 43 -102"/><text x="43" y="-116.3" font-family="Times New Roman,serif" font-size="14" text-anchor="middle">u</text></g><g id="node3" class="node"><title>A_left</title><polygon fill="none" stroke="#000" points="58 -17 58 -63 112 -63 112 -17 58 -17"/><polyline fill="none" stroke="#000" points="58 -40 84 -40"/><text x="71" y="-24.8" font-family="Times New Roman,serif" font-size="14" text-anchor="middle">a</text><polyline fill="none" stroke="#000" points="84 -17 84 -63"/><polyline fill="none" stroke="#000" points="84 -40 112 -40"/><text x="98" y="-24.8" font-family="Times New Roman,serif" font-size="14" text-anchor="middle">b</text></g><g id="edge1" class="edge"><title>A_u1:s-&gt;A_left:a:n</title><path fill="none" stroke="#000" d="M45.7871,-92.19C52.8694,-81.616 71,-80.8812 71,-64"/><polygon fill="#000" stroke="#000" points="42.366 -91.424 43 -102 49.1 -93.337 42.366 -91.424"/></g><g id="node2" class="node"><title>A_v1</title><polygon fill="none" stroke="#000" points="115 -102 142 -129 88 -129 115 -102"/><text x="115" y="-116.3" font-family="Times New Roman,serif" font-size="14" text-anchor="middle">v</text></g><g id="edge2" class="edge"><title>A_v1:s-&gt;A_left:b:n</title><path fill="none" stroke="#000" d="M112.915,-92.0047C108.376,-82.2246 98,-78.4546 98,-64"/><polygon fill="#000" stroke="#000" points="109.532 -92.925 115 -102 116.385 -91.496 109.532 -92.925"/></g><g id="node4" class="node"><title>temp0</title><ellipse cx="185" cy="-120" fill="none" stroke="none" rx="1.8" ry="1.8"/></g><g id="node5" class="node"><title>temp1</title><text x="185" y="-36.3" font-family="Times New Roman,serif" font-size="14" text-anchor="middle">+</text></g><g id="edge3" class="edge"><title>temp0-&gt;temp1</title></g><g id="node6" class="node"><title>A_w1</title><polygon fill="none" stroke="#000" points="255 -102 282 -129 228 -129 255 -102"/><text x="255" y="-116.3" font-family="Times New Roman,serif" font-size="14" text-anchor="middle">v</text></g><g id="node8" class="node"><title>A_right</title><polygon fill="none" stroke="#000" points="269 -17 269 -63 323 -63 323 -17 269 -17"/><polyline fill="none" stroke="#000" points="269 -40 296 -40"/><text x="282.5" y="-24.8" font-family="Times New Roman,serif" font-size="14" text-anchor="middle">b</text><polyline fill="none" stroke="#000" points="296 -17 296 -63"/><polyline fill="none" stroke="#000" points="296 -40 323 -40"/><text x="309.5" y="-24.8" font-family="Times New Roman,serif" font-size="14" text-anchor="middle">d</text></g><g id="edge4" class="edge"><title>A_w1:s-&gt;A_right:b:n</title><path fill="none" stroke="#000" d="M257.688,-92.2648C264.517,-81.7028 282,-80.6715 282,-64"/><polygon fill="#000" stroke="#000" points="254.287 -91.429 255 -102 261.035 -93.292 254.287 -91.429"/></g><g id="node7" class="node"><title>A_x1</title><polygon fill="none" stroke="#000" points="327 -102 354 -129 300 -129 327 -102"/><text x="327" y="-116.3" font-family="Times New Roman,serif" font-size="14" text-anchor="middle">x</text></g><g id="edge5" class="edge"><title>A_x1:s-&gt;A_right:d:n</title><path fill="none" stroke="#000" d="M324.915,-92.0047C320.376,-82.2246 310,-78.4546 310,-64"/><polygon fill="#000" stroke="#000" points="321.532 -92.925 327 -102 328.385 -91.496 321.532 -92.925"/></g><g id="node9" class="node"><title>temp2a</title><ellipse cx="425" cy="-120" fill="none" stroke="none" rx="1.8" ry="1.8"/></g><g id="node10" class="node"><title>temp2b</title><ellipse cx="376" cy="-40" fill="none" stroke="none" rx="1.8" ry="1.8"/></g><g id="edge6" class="edge"><title>temp2a-&gt;temp2b</title></g><g id="node11" class="node"><title>temp2c</title><ellipse cx="466" cy="-40" fill="none" stroke="none" rx="1.8" ry="1.8"/></g><g id="edge7" class="edge"><title>temp2a-&gt;temp2c</title></g><g id="edge8" class="edge"><title>temp2b-&gt;temp2c</title><path fill="none" stroke="#000" d="M377.88,-40C387.579,-40 432.352,-40 454.091,-40"/><polygon fill="#000" stroke="#000" points="454.131 -43.5 464.131 -40 454.131 -36.5 454.131 -43.5"/><text x="420.6" y="-46.8" fill="#fffffe" font-family="Times New Roman,serif" font-size="14" text-anchor="middle">wwwwwww</text></g><g id="node12" class="node"><title>A_u2</title><polygon fill="none" stroke="#000" points="511 -102 538 -129 484 -129 511 -102"/><text x="511" y="-116.3" font-family="Times New Roman,serif" font-size="14" text-anchor="middle">u</text></g><g id="node15" class="node"><title>A_result</title><polygon fill="none" stroke="#000" points="548.5 -17 548.5 -63 619.5 -63 619.5 -17 548.5 -17"/><polyline fill="none" stroke="#000" points="548.5 -40 571.5 -40"/><text x="560" y="-24.8" font-family="Times New Roman,serif" font-size="14" text-anchor="middle">a</text><polyline fill="none" stroke="#000" points="571.5 -17 571.5 -63"/><polyline fill="none" stroke="#000" points="571.5 -40 595.5 -40"/><text x="583.5" y="-24.8" font-family="Times New Roman,serif" font-size="14" text-anchor="middle">b</text><polyline fill="none" stroke="#000" points="595.5 -17 595.5 -63"/><polyline fill="none" stroke="#000" points="595.5 -40 619.5 -40"/><text x="607.5" y="-24.8" font-family="Times New Roman,serif" font-size="14" text-anchor="middle">d</text></g><g id="edge9" class="edge"><title>A_u2:s-&gt;A_result:a:n</title><path fill="none" stroke="#000" d="M513.918,-92.3885C524.467,-78.5384 560,-87.4683 560,-64"/><polygon fill="#000" stroke="#000" points="510.556 -91.415 511 -102 517.255 -93.448 510.556 -91.415"/></g><g id="node13" class="node"><title>A_v2</title><polygon fill="none" stroke="#000" points="583 -102 610 -129 556 -129 583 -102"/><text x="583" y="-116.3" font-family="Times New Roman,serif" font-size="14" text-anchor="middle">v</text></g><g id="edge10" class="edge"><title>A_v2:s-&gt;A_result:b:n</title><path fill="none" stroke="#000" d="M583,-91.8862C583,-82.4361 583,-76.9306 583,-64"/><polygon fill="#000" stroke="#000" points="579.5 -92 583 -102 586.5 -92 579.5 -92"/></g><g id="node14" class="node"><title>A_x2</title><polygon fill="none" stroke="#000" points="655 -102 682 -129 628 -129 655 -102"/><text x="655" y="-116.3" font-family="Times New Roman,serif" font-size="14" text-anchor="middle">x</text></g><g id="edge11" class="edge"><title>A_x2:s-&gt;A_result:d:n</title><path fill="none" stroke="#000" d="M651.916,-92.2026C641.46,-79.0119 608,-86.665 608,-64"/><polygon fill="#000" stroke="#000" points="648.659 -93.512 655 -102 655.336 -91.41 648.659 -93.512"/></g></g></svg>