<svg xmlns="http://www.w3.org/2000/svg" xmlns:xlink="http://www.w3.org/1999/xlink" width="590pt" height="276" viewBox="0 0 590 206.67"><g id="graph0" class="graph" transform="scale(0.833333 0.833333) rotate(0) translate(4 244)"><polygon fill="#fff" stroke="none" points="-4 4 -4 -244 704 -244 704 4 -4 4"/><g id="clust1" class="cluster"><title>clusterA</title><polygon fill="none" stroke="none" points="8 -94 8 -232 150 -232 150 -94 8 -94"/></g><g id="clust5" class="cluster"><title>clusterB</title><polygon fill="none" stroke="none" points="220 -94 220 -232 362 -232 362 -94 220 -94"/></g><g id="clust10" class="cluster"><title>clusterC</title><polygon fill="none" stroke="none" points="478 -8 478 -232 692 -232 692 -8 478 -8"/></g><g id="node1" class="node"><title>A_u1</title><polygon fill="none" stroke="#000" points="43 -188 70 -215 16 -215 43 -188"/><text x="43" y="-202.3" font-family="Times New Roman,serif" font-size="14" text-anchor="middle">u</text></g><g id="node3" class="node"><title>A_left</title><polygon fill="none" stroke="#000" points="58 -103 58 -149 112 -149 112 -103 58 -103"/><polyline fill="none" stroke="#000" points="58 -126 84 -126"/><text x="71" y="-110.8" font-family="Times New Roman,serif" font-size="14" text-anchor="middle">a</text><polyline fill="none" stroke="#000" points="84 -103 84 -149"/><polyline fill="none" stroke="#000" points="84 -126 112 -126"/><text x="98" y="-110.8" font-family="Times New Roman,serif" font-size="14" text-anchor="middle">b</text></g><g id="edge1" class="edge"><title>A_u1:s-&gt;A_left:a:n</title><path fill="none" stroke="#000" d="M45.7871,-178.19C52.8694,-167.616 71,-166.881 71,-150"/><polygon fill="#000" stroke="#000" points="42.366 -177.424 43 -188 49.1 -179.337 42.366 -177.424"/></g><g id="node2" class="node"><title>A_v1</title><polygon fill="none" stroke="#000" points="115 -188 142 -215 88 -215 115 -188"/><text x="115" y="-202.3" font-family="Times New Roman,serif" font-size="14" text-anchor="middle">v</text></g><g id="edge2" class="edge"><title>A_v1:s-&gt;A_left:b:n</title><path fill="none" stroke="#000" d="M112.915,-178.005C108.376,-168.225 98,-164.455 98,-150"/><polygon fill="#000" stroke="#000" points="109.532 -178.925 115 -188 116.385 -177.496 109.532 -178.925"/></g><g id="node4" class="node"><title>temp0</title><ellipse cx="185" cy="-206" fill="none" stroke="none" rx="1.8" ry="1.8"/></g><g id="node5" class="node"><title>temp1</title><text x="185" y="-122.3" font-family="Times New Roman,serif" font-size="14" text-anchor="middle">+</text></g><g id="edge3" class="edge"><title>temp0-&gt;temp1</title></g><g id="node6" class="node"><title>A_w1</title><polygon fill="none" stroke="#000" points="255 -188 282 -215 228 -215 255 -188"/><text x="255" y="-202.3" font-family="Times New Roman,serif" font-size="14" text-anchor="middle">w</text></g><g id="node8" class="node"><title>A_right</title><polygon fill="none" stroke="#000" points="269 -103 269 -149 323 -149 323 -103 269 -103"/><polyline fill="none" stroke="#000" points="269 -126 296 -126"/><text x="282.5" y="-110.8" font-family="Times New Roman,serif" font-size="14" text-anchor="middle">b</text><polyline fill="none" stroke="#000" points="296 -103 296 -149"/><polyline fill="none" stroke="#000" points="296 -126 323 -126"/><text x="309.5" y="-110.8" font-family="Times New Roman,serif" font-size="14" text-anchor="middle">d</text></g><g id="edge4" class="edge"><title>A_w1:s-&gt;A_right:b:n</title><path fill="none" stroke="#000" d="M257.688,-178.265C264.517,-167.703 282,-166.671 282,-150"/><polygon fill="#000" stroke="#000" points="254.287 -177.429 255 -188 261.035 -179.292 254.287 -177.429"/></g><g id="node7" class="node"><title>A_x1</title><polygon fill="none" stroke="#000" points="327 -188 354 -215 300 -215 327 -188"/><text x="327" y="-202.3" font-family="Times New Roman,serif" font-size="14" text-anchor="middle">x</text></g><g id="edge5" class="edge"><title>A_x1:s-&gt;A_right:d:n</title><path fill="none" stroke="#000" d="M324.915,-178.005C320.376,-168.225 310,-164.455 310,-150"/><polygon fill="#000" stroke="#000" points="321.532 -178.925 327 -188 328.385 -177.496 321.532 -178.925"/></g><g id="node9" class="node"><title>temp2a</title><ellipse cx="426" cy="-206" fill="none" stroke="none" rx="1.8" ry="1.8"/></g><g id="node10" class="node"><title>temp2b</title><ellipse cx="376" cy="-126" fill="none" stroke="none" rx="1.8" ry="1.8"/></g><g id="edge6" class="edge"><title>temp2a-&gt;temp2b</title></g><g id="node11" class="node"><title>temp2c</title><ellipse cx="466" cy="-126" fill="none" stroke="none" rx="1.8" ry="1.8"/></g><g id="edge7" class="edge"><title>temp2a-&gt;temp2c</title></g><g id="edge8" class="edge"><title>temp2b-&gt;temp2c</title><path fill="none" stroke="#000" d="M377.88,-126C387.579,-126 432.352,-126 454.091,-126"/><polygon fill="#000" stroke="#000" points="454.131 -129.5 464.131 -126 454.131 -122.5 454.131 -129.5"/><text x="420.6" y="-132.8" fill="#fffffe" font-family="Times New Roman,serif" font-size="14" text-anchor="middle">wwwwwww</text></g><g id="node12" class="node"><title>A_u2</title><polygon fill="none" stroke="#000" points="513 -108 540 -135 486 -135 513 -108"/><text x="513" y="-122.3" font-family="Times New Roman,serif" font-size="14" text-anchor="middle">u</text></g><g id="node17" class="node"><title>A_result</title><polygon fill="none" stroke="#000" points="549 -17 549 -63 623 -63 623 -17 549 -17"/><polyline fill="none" stroke="#000" points="549 -40 572 -40"/><text x="560.5" y="-24.8" font-family="Times New Roman,serif" font-size="14" text-anchor="middle">a</text><polyline fill="none" stroke="#000" points="572 -17 572 -63"/><polyline fill="none" stroke="#000" points="572 -40 599 -40"/><text x="585.5" y="-24.8" font-family="Times New Roman,serif" font-size="14" text-anchor="middle">b&apos;</text><polyline fill="none" stroke="#000" points="599 -17 599 -63"/><polyline fill="none" stroke="#000" points="599 -40 623 -40"/><text x="611" y="-24.8" font-family="Times New Roman,serif" font-size="14" text-anchor="middle">d</text></g><g id="edge9" class="edge"><title>A_u2:s-&gt;A_result:a:n</title><path fill="none" stroke="#000" d="M515.527,-97.3105C525.289,-81.6904 560,-88.3308 560,-64"/><polygon fill="#000" stroke="#000" points="512.137 -96.44 513 -107 518.91 -98.207 512.137 -96.44"/></g><g id="node13" class="node"><title>A_vw</title><polygon fill="none" stroke="#000" points="558 -108 558 -144 612 -144 612 -108 558 -108"/><polyline fill="none" stroke="#000" points="558 -126 583 -126"/><text x="570.5" y="-113.3" font-family="Times New Roman,serif" font-size="14" text-anchor="middle">v</text><polyline fill="none" stroke="#000" points="583 -108 583 -144"/><polyline fill="none" stroke="#000" points="583 -126 612 -126"/><text x="597.5" y="-113.3" font-family="Times New Roman,serif" font-size="14" text-anchor="middle">w</text></g><g id="edge10" class="edge"><title>A_vw:s-&gt;A_result:b:n</title><path fill="none" stroke="#000" d="M585,-96.8881C585,-85.3565 585,-79.2292 585,-64"/><polygon fill="#000" stroke="#000" points="581.5 -97 585 -107 588.5 -97 581.5 -97"/></g><g id="node14" class="node"><title>A_x2</title><polygon fill="none" stroke="#000" points="657 -108 684 -135 630 -135 657 -108"/><text x="657" y="-122.3" font-family="Times New Roman,serif" font-size="14" text-anchor="middle">x</text></g><g id="edge11" class="edge"><title>A_x2:s-&gt;A_result:d:n</title><path fill="none" stroke="#000" d="M654.26,-96.977C644.357,-81.9627 611,-87.8317 611,-64"/><polygon fill="#000" stroke="#000" points="650.987 -98.277 657 -107 657.739 -96.431 650.987 -98.277"/></g><g id="node15" class="node"><title>A_vp</title><polygon fill="none" stroke="#000" points="543 -188 570 -215 516 -215 543 -188"/></g><g id="edge12" class="edge"><title>A_vp:s-&gt;A_vw:v:n</title><path fill="none" stroke="#000" d="M545.302,-177.941C551.831,-165.403 570,-163.511 570,-145"/><polygon fill="#000" stroke="#000" points="541.819 -177.471 543 -188 548.643 -179.033 541.819 -177.471"/></g><g id="node16" class="node"><title>A_wp</title><polygon fill="none" stroke="#000" points="615 -188 642 -215 588 -215 615 -188"/></g><g id="edge13" class="edge"><title>A_wp:s-&gt;A_vw:w:n</title><path fill="none" stroke="#000" d="M613.308,-177.815C609.008,-165.996 598,-161.537 598,-145"/><polygon fill="#000" stroke="#000" points="609.908 -178.709 615 -188 616.814 -177.562 609.908 -178.709"/></g></g></svg>