<svg xmlns="http://www.w3.org/2000/svg" xmlns:xlink="http://www.w3.org/1999/xlink" width="1032" height="212pt" viewBox="0 0 774 212"><g id="graph0" class="graph" transform="scale(1 1) rotate(0) translate(18 194)"><polygon fill="#fff" stroke="none" points="-18 18 -18 -194 756 -194 756 18 -18 18"/><g id="clust1" class="cluster"><title>clusterA</title><polygon fill="none" stroke="none" points="106 -8 106 -168 646 -168 646 -8 106 -8"/></g><g id="node1" class="node"><title>BasicBlockStartState</title><g id="a_node1"><a target="_parent" xlink:href="../BasicBlockStartState.html" xlink:title="{BasicBlockStartState | {&lt;alt1&gt; alt 1 |&lt;alt2&gt; alt 2 | ·\n·\n· |&lt;altn&gt; alt n}}"><polygon fill="none" stroke="#000" points="114 -23 114 -145 354 -145 354 -23 114 -23"/><text x="205" y="-80.3" font-family="Courier New" font-size="14" text-anchor="middle">BasicBlockStartState</text><polyline fill="none" stroke="#000" points="296 -23 296 -145"/><text x="325" y="-129.8" font-family="Courier New" font-size="14" text-anchor="middle">alt 1</text><polyline fill="none" stroke="#000" points="296 -122 354 -122"/><text x="325" y="-106.8" font-family="Courier New" font-size="14" text-anchor="middle">alt 2</text><polyline fill="none" stroke="#000" points="296 -99 354 -99"/><text x="325" y="-83.8" font-family="Courier New" font-size="14" text-anchor="middle">·</text><text x="325" y="-68.8" font-family="Courier New" font-size="14" text-anchor="middle">·</text><text x="325" y="-53.8" font-family="Courier New" font-size="14" text-anchor="middle">·</text><polyline fill="none" stroke="#000" points="296 -46 354 -46"/><text x="325" y="-30.8" font-family="Courier New" font-size="14" text-anchor="middle">alt n</text></a></g></g><g id="node3" class="node"><title>content1</title><ellipse cx="438" cy="-142" fill="none" stroke="#000" stroke-dasharray="5 2" rx="37.894" ry="18"/><text x="438" y="-138.3" font-family="Courier New" font-size="14" text-anchor="middle">alt 1</text></g><g id="edge3" class="edge"><title>BasicBlockStartState:alt1-&gt;content1</title><path fill="none" stroke="#000" d="M354,-134C366.215,-134 379.394,-134.869 391.575,-136.034"/><polygon fill="#000" stroke="#000" points="391.221 -139.516 401.529 -137.07 391.945 -132.554 391.221 -139.516"/><text x="377" y="-138.8" font-family="Courier New" font-size="14" text-anchor="middle">ε</text></g><g id="node4" class="node"><title>content2</title><ellipse cx="438" cy="-88" fill="none" stroke="#000" stroke-dasharray="5 2" rx="37.894" ry="18"/><text x="438" y="-84.3" font-family="Courier New" font-size="14" text-anchor="middle">alt 2</text></g><g id="edge5" class="edge"><title>BasicBlockStartState:alt2-&gt;content2</title><path fill="none" stroke="#000" d="M354,-111C363.152,-111 363.41,-104.157 372,-101 378.314,-98.6792 385.133,-96.7404 391.898,-95.1303"/><polygon fill="#000" stroke="#000" points="392.676 -98.543 401.705 -93 391.19 -91.703 392.676 -98.543"/><text x="377" y="-104.8" font-family="Courier New" font-size="14" text-anchor="middle">ε</text></g><g id="node5" class="node"><title>more</title><ellipse cx="438" cy="-34" fill="none" stroke="#000" stroke-dasharray="5 2" rx="37.894" ry="18"/><text x="438" y="-30.3" font-family="Courier New" font-size="14" text-anchor="middle">alt n</text></g><g id="edge7" class="edge"><title>BasicBlockStartState:altn-&gt;more</title><path fill="none" stroke="#000" d="M354,-34C365.702,-34 378.333,-34 390.125,-34"/><polygon fill="#000" stroke="#000" points="390.227 -37.5 400.227 -34 390.227 -30.5 390.227 -37.5"/><text x="377" y="-37.8" font-family="Courier New" font-size="14" text-anchor="middle">ε</text></g><g id="node2" class="node"><title>BlockEndState</title><g id="a_node2"><a target="_parent" xlink:href="../BlockEndState.html" xlink:title="\N"><polygon fill="none" stroke="#000" points="514 -70 514 -106 638 -106 638 -70 514 -70"/><text x="576" y="-84.3" font-family="Courier New" font-size="14" text-anchor="middle">BlockEndState</text></a></g></g><g id="node7" class="node"><title>end</title><ellipse cx="711" cy="-88" fill="none" stroke="#000" stroke-dasharray="5 2" rx="27" ry="18"/><text x="711" y="-84.3" font-family="Courier New" font-size="14" text-anchor="middle">end</text></g><g id="edge2" class="edge"><title>BlockEndState-&gt;end</title><path fill="none" stroke="#000" d="M638.05,-88C650.263,-88 662.723,-88 673.767,-88"/><polygon fill="#000" stroke="#000" points="673.867 -91.5 683.867 -88 673.867 -84.5 673.867 -91.5"/><text x="661" y="-91.8" font-family="Courier New" font-size="14" text-anchor="middle">ε</text></g><g id="edge4" class="edge"><title>content1-&gt;BlockEndState</title><path fill="none" stroke="#000" stroke-dasharray="5 2" d="M467.51,-130.68C482.832,-124.596 502.247,-116.887 520.348,-109.7"/><polygon fill="#000" stroke="#000" points="521.663 -112.944 529.666 -106 519.08 -106.438 521.663 -112.944"/></g><g id="edge6" class="edge"><title>content2-&gt;BlockEndState</title><path fill="none" stroke="#000" stroke-dasharray="5 2" d="M475.804,-88C484.503,-88 494.072,-88 503.729,-88"/><polygon fill="#000" stroke="#000" points="503.792 -91.5 513.792 -88 503.792 -84.5 503.792 -91.5"/></g><g id="edge8" class="edge"><title>more-&gt;BlockEndState</title><path fill="none" stroke="#000" stroke-dasharray="5 2" d="M467.51,-45.3202C482.832,-51.4038 502.247,-59.1128 520.348,-66.3001"/><polygon fill="#000" stroke="#000" points="519.08 -69.562 529.666 -70 521.663 -63.056 519.08 -69.562"/></g><g id="node6" class="node"><title>begin</title><ellipse cx="38" cy="-84" fill="none" stroke="#000" stroke-dasharray="5 2" rx="37.894" ry="18"/><text x="38" y="-80.3" font-family="Courier New" font-size="14" text-anchor="middle">begin</text></g><g id="edge1" class="edge"><title>begin-&gt;BasicBlockStartState</title><path fill="none" stroke="#000" stroke-dasharray="5 2" d="M75.9466,-84C84.3567,-84 93.7598,-84 103.671,-84"/><polygon fill="#000" stroke="#000" points="103.735 -87.5 113.734 -84 103.734 -80.5 103.735 -87.5"/></g></g></svg>