<svg xmlns="http://www.w3.org/2000/svg" xmlns:xlink="http://www.w3.org/1999/xlink" width="1832" height="314pt" viewBox="0 0 1374 314"><g id="graph0" class="graph" transform="scale(1 1) rotate(0) translate(18 296)"><polygon fill="#fff" stroke="none" points="-18 18 -18 -296 1356 -296 1356 18 -18 18"/><g id="clust1" class="cluster"><title>cluster0</title><polygon fill="none" stroke="none" points="106 -8 106 -270 1246 -270 1246 -8 106 -8"/></g><g id="node1" class="node"><title>StarLoopEntryState</title><g id="a_node1"><a target="_parent" xlink:href="../StarLoopEntryState.html" xlink:title="{StarLoopEntryState | {&lt;alt1&gt; alt 1 |&lt;alt2&gt; alt 2}}"><polygon fill="none" stroke="#000" points="114.5 -124 114.5 -170 337.5 -170 337.5 -124 114.5 -124"/><text x="197" y="-143.3" font-family="Courier New" font-size="14" text-anchor="middle">StarLoopEntryState</text><polyline fill="none" stroke="#000" points="279.5 -124 279.5 -170"/><text x="308.5" y="-154.8" font-family="Courier New" font-size="14" text-anchor="middle">alt 1</text><polyline fill="none" stroke="#000" points="279.5 -147 337.5 -147"/><text x="308.5" y="-131.8" font-family="Courier New" font-size="14" text-anchor="middle">alt 2</text></a></g></g><g id="node3" class="node"><title>StarBlockStartState</title><g id="a_node3"><a target="_parent" xlink:href="../StarBlockStartState.html" xlink:title="{StarBlockStartState | {&lt;alt1&gt; alt 1 |&lt;alt2&gt; alt 2 | ·\n·\n· |&lt;altn&gt; alt n}}"><polygon fill="none" stroke="#000" points="384.5 -74 384.5 -196 615.5 -196 615.5 -74 384.5 -74"/><text x="471" y="-131.3" font-family="Courier New" font-size="14" text-anchor="middle">StarBlockStartState</text><polyline fill="none" stroke="#000" points="557.5 -74 557.5 -196"/><text x="586.5" y="-180.8" font-family="Courier New" font-size="14" text-anchor="middle">alt 1</text><polyline fill="none" stroke="#000" points="557.5 -173 615.5 -173"/><text x="586.5" y="-157.8" font-family="Courier New" font-size="14" text-anchor="middle">alt 2</text><polyline fill="none" stroke="#000" points="557.5 -150 615.5 -150"/><text x="586.5" y="-134.8" font-family="Courier New" font-size="14" text-anchor="middle">·</text><text x="586.5" y="-119.8" font-family="Courier New" font-size="14" text-anchor="middle">·</text><text x="586.5" y="-104.8" font-family="Courier New" font-size="14" text-anchor="middle">·</text><polyline fill="none" stroke="#000" points="557.5 -97 615.5 -97"/><text x="586.5" y="-81.8" font-family="Courier New" font-size="14" text-anchor="middle">alt n</text></a></g></g><g id="edge10" class="edge"><title>StarLoopEntryState:alt2-&gt;StarBlockStartState</title><path fill="none" stroke="#000" d="M338,-135C349.683,-135 361.842,-135 374.012,-135"/><polygon fill="#000" stroke="#000" points="374.226 -138.5 384.226 -135 374.226 -131.5 374.226 -138.5"/><text x="361" y="-139.8" font-family="Courier New" font-size="14" text-anchor="middle">ε</text></g><g id="node5" class="node"><title>LoopEndState</title><g id="a_node5"><a target="_parent" xlink:href="../LoopEndState.html" xlink:title="\N"><polygon fill="none" stroke="#000" points="1122 -225 1122 -261 1238 -261 1238 -225 1122 -225"/><text x="1180" y="-239.3" font-family="Courier New" font-size="14" text-anchor="middle">LoopEndState</text></a></g></g><g id="edge11" class="edge"><title>StarLoopEntryState:alt1-&gt;LoopEndState</title><path fill="none" stroke="#000" d="M338,-159C366.913,-159 359.624,-189.452 384,-205 429.875,-234.261 444.587,-247 499,-247 499,-247 499,-247 924,-247 987.584,-247 1060.07,-245.741 1111.47,-244.636"/><polygon fill="#000" stroke="#000" points="1111.86 -248.128 1121.78 -244.41 1111.71 -241.13 1111.86 -248.128"/><text x="700" y="-250.8" font-family="Courier New" font-size="14" text-anchor="middle">ε</text></g><g id="node2" class="node"><title>StarLoopbackState</title><g id="a_node2"><a target="_parent" xlink:href="../StarLoopbackState.html" xlink:title="\N"><polygon fill="none" stroke="#000" points="946.5 -46 946.5 -82 1103.5 -82 1103.5 -46 946.5 -46"/><text x="1025" y="-60.3" font-family="Courier New" font-size="14" text-anchor="middle">StarLoopbackState</text></a></g></g><g id="edge12" class="edge"><title>StarLoopbackState:s-&gt;StarLoopEntryState:s</title><path fill="none" stroke="#000" d="M1025,-45C1025,37.8111 921.811,-34 839,-34 499,-34 499,-34 499,-34 374.871,-34 233.937,2.5352 226.323,-112.9"/><polygon fill="#000" stroke="#000" points="222.821 -112.893 226 -123 229.818 -113.117 222.821 -112.893"/><text x="700" y="-37.8" font-family="Courier New" font-size="14" text-anchor="middle">ε</text></g><g id="node6" class="node"><title>content1</title><ellipse cx="700" cy="-193" fill="none" stroke="#000" stroke-dasharray="5 2" rx="37.894" ry="18"/><text x="700" y="-189.3" font-family="Courier New" font-size="14" text-anchor="middle">alt 1</text></g><g id="edge3" class="edge"><title>StarBlockStartState:alt1-&gt;content1</title><path fill="none" stroke="#000" d="M616,-185C628.215,-185 641.394,-185.869 653.575,-187.034"/><polygon fill="#000" stroke="#000" points="653.221 -190.516 663.529 -188.07 653.945 -183.554 653.221 -190.516"/><text x="639" y="-189.8" font-family="Courier New" font-size="14" text-anchor="middle">ε</text></g><g id="node7" class="node"><title>content2</title><ellipse cx="700" cy="-139" fill="none" stroke="#000" stroke-dasharray="5 2" rx="37.894" ry="18"/><text x="700" y="-135.3" font-family="Courier New" font-size="14" text-anchor="middle">alt 2</text></g><g id="edge5" class="edge"><title>StarBlockStartState:alt2-&gt;content2</title><path fill="none" stroke="#000" d="M616,-162C625.152,-162 625.41,-155.157 634,-152 640.314,-149.679 647.133,-147.74 653.898,-146.13"/><polygon fill="#000" stroke="#000" points="654.676 -149.543 663.705 -144 653.19 -142.702 654.676 -149.543"/><text x="639" y="-155.8" font-family="Courier New" font-size="14" text-anchor="middle">ε</text></g><g id="node8" class="node"><title>more</title><ellipse cx="700" cy="-85" fill="none" stroke="#000" stroke-dasharray="5 2" rx="37.894" ry="18"/><text x="700" y="-81.3" font-family="Courier New" font-size="14" text-anchor="middle">alt n</text></g><g id="edge7" class="edge"><title>StarBlockStartState:altn-&gt;more</title><path fill="none" stroke="#000" d="M616,-85C627.702,-85 640.333,-85 652.125,-85"/><polygon fill="#000" stroke="#000" points="652.227 -88.5 662.227 -85 652.227 -81.5 652.227 -88.5"/><text x="639" y="-88.8" font-family="Courier New" font-size="14" text-anchor="middle">ε</text></g><g id="node4" class="node"><title>BlockEndState</title><g id="a_node4"><a target="_parent" xlink:href="../BlockEndState.html" xlink:title="\N"><polygon fill="none" stroke="#000" points="776 -81 776 -117 900 -117 900 -81 776 -81"/><text x="838" y="-95.3" font-family="Courier New" font-size="14" text-anchor="middle">BlockEndState</text></a></g></g><g id="edge9" class="edge"><title>BlockEndState:e-&gt;StarLoopbackState:w</title><path fill="none" stroke="#000" d="M900,-99C921.676,-99 921.233,-74.083 935.997,-66.2964"/><polygon fill="#000" stroke="#000" points="937.037 -69.649 946 -64 935.47 -62.826 937.037 -69.649"/><text x="923" y="-92.8" font-family="Courier New" font-size="14" text-anchor="middle">ε</text></g><g id="node10" class="node"><title>end</title><ellipse cx="1311" cy="-243" fill="none" stroke="#000" stroke-dasharray="5 2" rx="27" ry="18"/><text x="1311" y="-239.3" font-family="Courier New" font-size="14" text-anchor="middle">end</text></g><g id="edge2" class="edge"><title>LoopEndState-&gt;end</title><path fill="none" stroke="#000" d="M1238.33,-243C1250.37,-243 1262.74,-243 1273.74,-243"/><polygon fill="#000" stroke="#000" points="1273.82 -246.5 1283.82 -243 1273.82 -239.5 1273.82 -246.5"/><text x="1261" y="-246.8" font-family="Courier New" font-size="14" text-anchor="middle">ε</text></g><g id="edge4" class="edge"><title>content1-&gt;BlockEndState</title><path fill="none" stroke="#000" stroke-dasharray="5 2" d="M722.25,-178.313C743.728,-163.467 777.267,-140.286 802.55,-122.811"/><polygon fill="#000" stroke="#000" points="804.542 -125.689 810.778 -117.124 800.561 -119.931 804.542 -125.689"/></g><g id="edge6" class="edge"><title>content2-&gt;BlockEndState</title><path fill="none" stroke="#000" stroke-dasharray="5 2" d="M732.543,-129.723C742.658,-126.748 754.301,-123.323 766.062,-119.864"/><polygon fill="#000" stroke="#000" points="767.331 -123.139 775.937 -116.96 765.356 -116.424 767.331 -123.139"/></g><g id="edge8" class="edge"><title>more-&gt;BlockEndState</title><path fill="none" stroke="#000" stroke-dasharray="5 2" d="M737.088,-88.715C746,-89.6324 755.858,-90.6472 765.807,-91.6713"/><polygon fill="#000" stroke="#000" points="765.449 -95.153 775.755 -92.695 766.166 -88.19 765.449 -95.153"/></g><g id="node9" class="node"><title>begin</title><ellipse cx="38" cy="-147" fill="none" stroke="#000" stroke-dasharray="5 2" rx="37.894" ry="18"/><text x="38" y="-143.3" font-family="Courier New" font-size="14" text-anchor="middle">begin</text></g><g id="edge1" class="edge"><title>begin-&gt;StarLoopEntryState</title><path fill="none" stroke="#000" stroke-dasharray="5 2" d="M75.7476,-147C84.3232,-147 93.9209,-147 104.003,-147"/><polygon fill="#000" stroke="#000" points="104.226 -150.5 114.226 -147 104.226 -143.5 104.226 -150.5"/></g></g></svg>