<svg xmlns="http://www.w3.org/2000/svg" xmlns:xlink="http://www.w3.org/1999/xlink" width="331pt" height="156" viewBox="0 0 330.83 116.67"><g id="graph0" class="graph" transform="scale(0.833333 0.833333) rotate(0) translate(4 136)"><polygon fill="#fff" stroke="none" points="-4 4 -4 -136 393 -136 393 4 -4 4"/><g id="node1" class="node"><title>left</title><text x="27" y="-105.3" font-family="Times New Roman,serif" font-size="14" text-anchor="middle">$</text></g><g id="node2" class="node"><title>leftroot</title><text x="27" y="-20.3" font-family="Times New Roman,serif" font-size="14" text-anchor="middle">a</text></g><g id="edge1" class="edge"><title>left-&gt;leftroot</title><path fill="none" stroke="#000" d="M27,-80.731C27,-68.0274 27,-53.2997 27,-42.1756"/><polygon fill="#000" stroke="#000" points="23.5 -80.802 27 -90.802 30.5 -80.802 23.5 -80.802"/></g><g id="node3" class="node"><title>temp1</title><text x="99" y="-105.3" font-family="Times New Roman,serif" font-size="14" text-anchor="middle">+</text></g><g id="node4" class="node"><title>right</title><polygon fill="none" stroke="#000" points="174 -86 203.348 -120.5 144.652 -120.5 174 -86"/><text x="174" y="-105.3" font-family="Times New Roman,serif" font-size="14" text-anchor="middle">x</text></g><g id="node5" class="node"><title>rightroot</title><text x="174" y="-20.3" font-family="Times New Roman,serif" font-size="14" text-anchor="middle">b</text></g><g id="edge2" class="edge"><title>right-&gt;rightroot</title><path fill="none" stroke="#000" d="M174,-75.6126C174,-64.1507 174,-51.7131 174,-42.0358"/><polygon fill="#000" stroke="#000" points="170.5 -75.757 174 -85.757 177.5 -75.758 170.5 -75.757"/></g><g id="node6" class="node"><title>temp2b</title><ellipse cx="224" cy="-109" fill="none" stroke="none" rx="1.8" ry="1.8"/></g><g id="node7" class="node"><title>temp2c</title><ellipse cx="314" cy="-109" fill="none" stroke="none" rx="1.8" ry="1.8"/></g><g id="edge3" class="edge"><title>temp2b-&gt;temp2c</title><path fill="none" stroke="#000" d="M225.88,-109C235.579,-109 280.352,-109 302.091,-109"/><polygon fill="#000" stroke="#000" points="302.131 -112.5 312.131 -109 302.131 -105.5 302.131 -112.5"/><text x="268.6" y="-115.8" fill="#fffffe" font-family="Times New Roman,serif" font-size="14" text-anchor="middle">wwwwwww</text></g><g id="node8" class="node"><title>result</title><text x="361" y="-105.3" font-family="Times New Roman,serif" font-size="14" text-anchor="middle">$</text></g><g id="node9" class="node"><title>resultroot</title><polygon fill="none" stroke="#000" points="335 -1 335 -47 389 -47 389 -1 335 -1"/><polyline fill="none" stroke="#000" points="335 -24 361 -24"/><text x="348" y="-8.8" font-family="Times New Roman,serif" font-size="14" text-anchor="middle">a</text><polyline fill="none" stroke="#000" points="361 -1 361 -47"/><polyline fill="none" stroke="#000" points="361 -24 389 -24"/><text x="375" y="-8.8" font-family="Times New Roman,serif" font-size="14" text-anchor="middle">b</text></g><g id="edge4" class="edge"><title>result-&gt;resultroot:a:n</title><path fill="none" stroke="#000" d="M352.578,-80.9138C350.081,-70.702 348,-58.9165 348,-48"/><polygon fill="#000" stroke="#000" points="349.282 -82.136 355.26 -90.884 356.042 -80.318 349.282 -82.136"/></g><g id="edge5" class="edge"><title>result-&gt;resultroot:b:n</title><path fill="none" stroke="#000" d="M369.985,-81.2778C372.712,-70.9972 375,-59.0709 375,-48"/><polygon fill="#000" stroke="#000" points="366.614 -80.338 367.181 -90.917 373.335 -82.293 366.614 -80.338"/></g></g></svg>