<svg xmlns="http://www.w3.org/2000/svg" xmlns:xlink="http://www.w3.org/1999/xlink" width="440" height="107pt" viewBox="0 0 330 106.67"><g id="graph0" class="graph" transform="scale(0.833333 0.833333) rotate(0) translate(4 124)"><polygon fill="#fff" stroke="none" points="-4 4 -4 -124 392 -124 392 4 -4 4"/><g id="node1" class="node"><title>left</title><text x="27" y="-93.3" font-family="Times New Roman,serif" font-size="14" text-anchor="middle">$</text></g><g id="node2" class="node"><title>leftroot</title><text x="27" y="-14.3" font-family="Times New Roman,serif" font-size="14" text-anchor="middle">a</text></g><g id="edge1" class="edge"><title>left-&gt;leftroot</title><path fill="none" stroke="#000" d="M27,-68.6223C27,-57.7586 27,-45.6026 27,-36.041"/><polygon fill="#000" stroke="#000" points="23.5 -68.911 27 -78.911 30.5 -68.911 23.5 -68.911"/></g><g id="node3" class="node"><title>temp1</title><text x="99" y="-93.3" font-family="Times New Roman,serif" font-size="14" text-anchor="middle">+</text></g><g id="node4" class="node"><title>right</title><polygon fill="none" stroke="#000" points="174 -74 203.348 -108.5 144.652 -108.5 174 -74"/><text x="174" y="-93.3" font-family="Times New Roman,serif" font-size="14" text-anchor="middle">x</text></g><g id="node5" class="node"><title>rightroot</title><text x="174" y="-14.3" font-family="Times New Roman,serif" font-size="14" text-anchor="middle">a</text></g><g id="edge2" class="edge"><title>right-&gt;rightroot</title><path fill="none" stroke="#000" d="M174,-63.5165C174,-54.1825 174,-44.3647 174,-36.3313"/><polygon fill="#000" stroke="#000" points="170.5 -63.728 174 -73.728 177.5 -63.728 170.5 -63.728"/></g><g id="node6" class="node"><title>temp2b</title><ellipse cx="224" cy="-97" fill="none" stroke="none" rx="1.8" ry="1.8"/></g><g id="node7" class="node"><title>temp2c</title><ellipse cx="314" cy="-97" fill="none" stroke="none" rx="1.8" ry="1.8"/></g><g id="edge3" class="edge"><title>temp2b-&gt;temp2c</title><path fill="none" stroke="#000" d="M225.88,-97C235.579,-97 280.352,-97 302.091,-97"/><polygon fill="#000" stroke="#000" points="302.131 -100.5 312.131 -97 302.131 -93.5 302.131 -100.5"/><text x="268.6" y="-103.8" fill="#fffffe" font-family="Times New Roman,serif" font-size="14" text-anchor="middle">wwwwwww</text></g><g id="node8" class="node"><title>result</title><text x="361" y="-93.3" font-family="Times New Roman,serif" font-size="14" text-anchor="middle">$</text></g><g id="node9" class="node"><title>resultroot</title><text x="361" y="-14.3" font-family="Times New Roman,serif" font-size="14" text-anchor="middle">a</text></g><g id="edge4" class="edge"><title>result-&gt;resultroot</title><path fill="none" stroke="#000" d="M361,-68.6223C361,-57.7586 361,-45.6026 361,-36.041"/><polygon fill="#000" stroke="#000" points="357.5 -68.911 361 -78.911 364.5 -68.911 357.5 -68.911"/></g></g></svg>