<svg xmlns="http://www.w3.org/2000/svg" xmlns:xlink="http://www.w3.org/1999/xlink" width="752pt" height="155pt" viewBox="0 0 752 155"><g id="graph0" class="graph" transform="scale(1 1) rotate(0) translate(18 137)"><polygon fill="#fff" stroke="none" points="-18 18 -18 -137 734 -137 734 18 -18 18"/><g id="clust1" class="cluster"><title>cluster0</title><polygon fill="none" stroke="none" points="106 -8 106 -111 624 -111 624 -8 106 -8"/></g><g id="node1" class="node"><title>BasicBlockStartState</title><g id="a_node1"><a target="_parent" xlink:href="../BasicBlockStartState.html" xlink:title="{BasicBlockStartState | {&lt;alt1&gt; alt 1 |&lt;alt2&gt; alt 2}}"><polygon fill="none" stroke="#000" points="114 -45 114 -91 354 -91 354 -45 114 -45"/><text x="205" y="-64.3" font-family="Courier New" font-size="14" text-anchor="middle">BasicBlockStartState</text><polyline fill="none" stroke="#000" points="296 -45 296 -91"/><text x="325" y="-75.8" font-family="Courier New" font-size="14" text-anchor="middle">alt 1</text><polyline fill="none" stroke="#000" points="296 -68 354 -68"/><text x="325" y="-52.8" font-family="Courier New" font-size="14" text-anchor="middle">alt 2</text></a></g></g><g id="node2" class="node"><title>BlockEndState</title><g id="a_node2"><a target="_parent" xlink:href="../BlockEndState.html" xlink:title="\N"><polygon fill="none" stroke="#000" points="492 -41 492 -77 616 -77 616 -41 492 -41"/><text x="554" y="-55.3" font-family="Courier New" font-size="14" text-anchor="middle">BlockEndState</text></a></g></g><g id="edge5" class="edge"><title>BasicBlockStartState:alt1-&gt;BlockEndState</title><path fill="none" stroke="#000" d="M354,-80C396.574,-80 443.99,-75.1876 481.856,-70.1703"/><polygon fill="#000" stroke="#000" points="482.33 -73.638 491.768 -68.824 481.388 -66.702 482.33 -73.638"/><text x="427" y="-81.8" font-family="Courier New" font-size="14" text-anchor="middle">ε</text></g><g id="node3" class="node"><title>content</title><ellipse cx="427" cy="-34" fill="none" stroke="#000" stroke-dasharray="5 2" rx="27" ry="18"/><text x="427" y="-30.3" font-family="Courier New" font-size="14" text-anchor="middle">alt</text></g><g id="edge3" class="edge"><title>BasicBlockStartState:alt2-&gt;content</title><path fill="none" stroke="#000" d="M354,-56C367.82,-56 382.506,-52.247 394.986,-47.8412"/><polygon fill="#000" stroke="#000" points="396.366 -51.061 404.463 -44.227 393.872 -44.52 396.366 -51.061"/><text x="377" y="-57.8" font-family="Courier New" font-size="14" text-anchor="middle">ε</text></g><g id="node5" class="node"><title>end</title><ellipse cx="689" cy="-59" fill="none" stroke="#000" stroke-dasharray="5 2" rx="27" ry="18"/><text x="689" y="-55.3" font-family="Courier New" font-size="14" text-anchor="middle">end</text></g><g id="edge2" class="edge"><title>BlockEndState-&gt;end</title><path fill="none" stroke="#000" d="M616.05,-59C628.263,-59 640.723,-59 651.767,-59"/><polygon fill="#000" stroke="#000" points="651.867 -62.5 661.867 -59 651.867 -55.5 651.867 -62.5"/><text x="639" y="-62.8" font-family="Courier New" font-size="14" text-anchor="middle">ε</text></g><g id="edge4" class="edge"><title>content-&gt;BlockEndState</title><path fill="none" stroke="#000" stroke-dasharray="5 2" d="M452.995,-38.999C461.526,-40.7052 471.536,-42.7071 481.866,-44.7733"/><polygon fill="#000" stroke="#000" points="481.339 -48.237 491.832 -46.766 482.712 -41.373 481.339 -48.237"/></g><g id="node4" class="node"><title>begin</title><ellipse cx="38" cy="-68" fill="none" stroke="#000" stroke-dasharray="5 2" rx="37.894" ry="18"/><text x="38" y="-64.3" font-family="Courier New" font-size="14" text-anchor="middle">begin</text></g><g id="edge1" class="edge"><title>begin-&gt;BasicBlockStartState</title><path fill="none" stroke="#000" stroke-dasharray="5 2" d="M75.9466,-68C84.3567,-68 93.7598,-68 103.671,-68"/><polygon fill="#000" stroke="#000" points="103.735 -71.5 113.734 -68 103.734 -64.5 103.735 -71.5"/></g></g></svg>