<svg xmlns="http://www.w3.org/2000/svg" xmlns:xlink="http://www.w3.org/1999/xlink" width="752pt" height="155pt" viewBox="0 0 752 155"><g id="graph0" class="graph" transform="scale(1 1) rotate(0) translate(18 137)"><polygon fill="#fff" stroke="none" points="-18 18 -18 -137 734 -137 734 18 -18 18"/><g id="clust1" class="cluster"><title>cluster0</title><polygon fill="none" stroke="none" points="106 -8 106 -111 624 -111 624 -8 106 -8"/></g><g id="node1" class="node"><title>BasicBlockStartState</title><g id="a_node1"><a target="_parent" xlink:href="../BasicBlockStartState.html" xlink:title="{BasicBlockStartState | {&lt;alt1&gt; alt 1 |&lt;alt2&gt; alt 2}}"><polygon fill="none" stroke="#000" points="114 -30 114 -76 354 -76 354 -30 114 -30"/><text x="205" y="-49.3" font-family="Courier New" font-size="14" text-anchor="middle">BasicBlockStartState</text><polyline fill="none" stroke="#000" points="296 -30 296 -76"/><text x="325" y="-60.8" font-family="Courier New" font-size="14" text-anchor="middle">alt 1</text><polyline fill="none" stroke="#000" points="296 -53 354 -53"/><text x="325" y="-37.8" font-family="Courier New" font-size="14" text-anchor="middle">alt 2</text></a></g></g><g id="node2" class="node"><title>BlockEndState</title><g id="a_node2"><a target="_parent" xlink:href="../BlockEndState.html" xlink:title="\N"><polygon fill="none" stroke="#000" points="492 -31 492 -67 616 -67 616 -31 492 -31"/><text x="554" y="-45.3" font-family="Courier New" font-size="14" text-anchor="middle">BlockEndState</text></a></g></g><g id="edge5" class="edge"><title>BasicBlockStartState:alt2-&gt;BlockEndState</title><path fill="none" stroke="#000" d="M354,-41C398.453,-41 409.583,-41.2106 454,-43 462.971,-43.3614 472.394,-43.8245 481.714,-44.3328"/><polygon fill="#000" stroke="#000" points="481.578 -47.831 491.759 -44.9 481.972 -40.842 481.578 -47.831"/><text x="427" y="-46.8" font-family="Courier New" font-size="14" text-anchor="middle">ε</text></g><g id="node3" class="node"><title>content</title><ellipse cx="427" cy="-85" fill="none" stroke="#000" stroke-dasharray="5 2" rx="27" ry="18"/><text x="427" y="-81.3" font-family="Courier New" font-size="14" text-anchor="middle">alt</text></g><g id="edge3" class="edge"><title>BasicBlockStartState:alt1-&gt;content</title><path fill="none" stroke="#000" d="M354,-65C367.379,-65 381.662,-68.2455 393.951,-72.1217"/><polygon fill="#000" stroke="#000" points="393.146 -75.545 403.74 -75.469 395.41 -68.922 393.146 -75.545"/><text x="377" y="-71.8" font-family="Courier New" font-size="14" text-anchor="middle">ε</text></g><g id="node5" class="node"><title>end</title><ellipse cx="689" cy="-49" fill="none" stroke="#000" stroke-dasharray="5 2" rx="27" ry="18"/><text x="689" y="-45.3" font-family="Courier New" font-size="14" text-anchor="middle">end</text></g><g id="edge2" class="edge"><title>BlockEndState-&gt;end</title><path fill="none" stroke="#000" d="M616.05,-49C628.263,-49 640.723,-49 651.767,-49"/><polygon fill="#000" stroke="#000" points="651.867 -52.5 661.867 -49 651.867 -45.5 651.867 -52.5"/><text x="639" y="-52.8" font-family="Courier New" font-size="14" text-anchor="middle">ε</text></g><g id="edge4" class="edge"><title>content-&gt;BlockEndState</title><path fill="none" stroke="#000" stroke-dasharray="5 2" d="M452.101,-78.0588C460.846,-75.5403 471.229,-72.5501 481.954,-69.4614"/><polygon fill="#000" stroke="#000" points="483.221 -72.739 491.862 -66.608 481.284 -66.012 483.221 -72.739"/></g><g id="node4" class="node"><title>begin</title><ellipse cx="38" cy="-53" fill="none" stroke="#000" stroke-dasharray="5 2" rx="37.894" ry="18"/><text x="38" y="-49.3" font-family="Courier New" font-size="14" text-anchor="middle">begin</text></g><g id="edge1" class="edge"><title>begin-&gt;BasicBlockStartState</title><path fill="none" stroke="#000" stroke-dasharray="5 2" d="M75.9466,-53C84.3567,-53 93.7598,-53 103.671,-53"/><polygon fill="#000" stroke="#000" points="103.735 -56.5 113.734 -53 103.734 -49.5 103.735 -56.5"/></g></g></svg>