<svg xmlns="http://www.w3.org/2000/svg" xmlns:xlink="http://www.w3.org/1999/xlink" width="1198pt" height="305pt" viewBox="0 0 1198 304.6"><g id="graph0" class="graph" transform="scale(1 1) rotate(0) translate(18 286.602)"><polygon fill="#fff" stroke="none" points="-18 18 -18 -286.602 1180 -286.602 1180 18 -18 18"/><g id="clust1" class="cluster"><title>cluster0</title><polygon fill="none" stroke="none" points="106 -80.602 106 -260.602 1070 -260.602 1070 -80.602 106 -80.602"/></g><g id="node1" class="node"><title>PlusBlockStartState</title><g id="a_node1"><a target="_parent" xlink:href="../PlusBlockStartState.html" xlink:title="{PlusBlockStartState | {&lt;alt1&gt; alt 1 |&lt;alt2&gt; alt 2 | ·\n·\n· |&lt;altn&gt; alt n}}"><polygon fill="none" stroke="#000" points="114.5 -103.602 114.5 -225.602 345.5 -225.602 345.5 -103.602 114.5 -103.602"/><text x="201" y="-160.902" font-family="Courier New" font-size="14" text-anchor="middle">PlusBlockStartState</text><polyline fill="none" stroke="#000" points="287.5 -103.602 287.5 -225.602"/><text x="316.5" y="-210.402" font-family="Courier New" font-size="14" text-anchor="middle">alt 1</text><polyline fill="none" stroke="#000" points="287.5 -202.602 345.5 -202.602"/><text x="316.5" y="-187.402" font-family="Courier New" font-size="14" text-anchor="middle">alt 2</text><polyline fill="none" stroke="#000" points="287.5 -179.602 345.5 -179.602"/><text x="316.5" y="-164.402" font-family="Courier New" font-size="14" text-anchor="middle">·</text><text x="316.5" y="-149.402" font-family="Courier New" font-size="14" text-anchor="middle">·</text><text x="316.5" y="-134.402" font-family="Courier New" font-size="14" text-anchor="middle">·</text><polyline fill="none" stroke="#000" points="287.5 -126.602 345.5 -126.602"/><text x="316.5" y="-111.402" font-family="Courier New" font-size="14" text-anchor="middle">alt n</text></a></g></g><g id="node5" class="node"><title>content1</title><ellipse cx="430" cy="-234.602" fill="none" stroke="#000" stroke-dasharray="5 2" rx="37.894" ry="18"/><text x="430" y="-230.902" font-family="Courier New" font-size="14" text-anchor="middle">alt 1</text></g><g id="edge3" class="edge"><title>PlusBlockStartState:alt1-&gt;content1</title><path fill="none" stroke="#000" d="M346,-214.602C360.41,-214.602 375.845,-217.486 389.449,-221.064"/><polygon fill="#000" stroke="#000" points="388.872 -224.538 399.448 -223.899 390.782 -217.804 388.872 -224.538"/><text x="369" y="-220.402" font-family="Courier New" font-size="14" text-anchor="middle">ε</text></g><g id="node6" class="node"><title>content2</title><ellipse cx="430" cy="-180.602" fill="none" stroke="#000" stroke-dasharray="5 2" rx="37.894" ry="18"/><text x="430" y="-176.902" font-family="Courier New" font-size="14" text-anchor="middle">alt 2</text></g><g id="edge5" class="edge"><title>PlusBlockStartState:alt2-&gt;content2</title><path fill="none" stroke="#000" d="M346,-191.602C358.605,-191.602 372.195,-190.339 384.655,-188.67"/><polygon fill="#000" stroke="#000" points="385.419 -192.096 394.81 -187.191 384.41 -185.169 385.419 -192.096"/><text x="369" y="-194.402" font-family="Courier New" font-size="14" text-anchor="middle">ε</text></g><g id="node7" class="node"><title>more</title><ellipse cx="430" cy="-126.602" fill="none" stroke="#000" stroke-dasharray="5 2" rx="37.894" ry="18"/><text x="430" y="-122.902" font-family="Courier New" font-size="14" text-anchor="middle">alt n</text></g><g id="edge7" class="edge"><title>PlusBlockStartState:altn-&gt;more</title><path fill="none" stroke="#000" d="M346,-114.602C358.74,-114.602 372.467,-116.004 385.019,-117.849"/><polygon fill="#000" stroke="#000" points="384.811 -121.36 395.238 -119.483 385.916 -114.448 384.811 -121.36"/><text x="369" y="-120.402" font-family="Courier New" font-size="14" text-anchor="middle">ε</text></g><g id="node2" class="node"><title>PlusLoopbackState</title><g id="a_node2"><a target="_parent" xlink:href="../PlusLoopbackState.html" xlink:title="{PlusLoopbackState | {&lt;alt1&gt; alt 1 |&lt;alt2&gt; alt 2}}"><polygon fill="none" stroke="#000" points="684.5 -112.602 684.5 -158.602 899.5 -158.602 899.5 -112.602 684.5 -112.602"/><text x="763" y="-131.902" font-family="Courier New" font-size="14" text-anchor="middle">PlusLoopbackState</text><polyline fill="none" stroke="#000" points="841.5 -112.602 841.5 -158.602"/><text x="870.5" y="-143.402" font-family="Courier New" font-size="14" text-anchor="middle">alt 1</text><polyline fill="none" stroke="#000" points="841.5 -135.602 899.5 -135.602"/><text x="870.5" y="-120.402" font-family="Courier New" font-size="14" text-anchor="middle">alt 2</text></a></g></g><g id="edge10" class="edge"><title>PlusLoopbackState:alt2:s-&gt;PlusBlockStartState:s</title><path fill="none" stroke="#000" d="M871,-111.602C871,27.3788 260.917,39.3378 231.128,-92.4383"/><polygon fill="#000" stroke="#000" points="227.624 -92.277 230 -102.602 234.581 -93.049 227.624 -92.277"/><text x="491" y="-5.402" font-family="Courier New" font-size="14" text-anchor="middle">ε</text></g><g id="node4" class="node"><title>LoopEndState</title><g id="a_node4"><a target="_parent" xlink:href="../LoopEndState.html" xlink:title="\N"><polygon fill="none" stroke="#000" points="946 -129.602 946 -165.602 1062 -165.602 1062 -129.602 946 -129.602"/><text x="1004" y="-143.902" font-family="Courier New" font-size="14" text-anchor="middle">LoopEndState</text></a></g></g><g id="edge11" class="edge"><title>PlusLoopbackState:alt1-&gt;LoopEndState</title><path fill="none" stroke="#000" d="M900,-147.602C911.479,-147.602 923.678,-147.602 935.514,-147.602"/><polygon fill="#000" stroke="#000" points="935.795 -151.102 945.795 -147.602 935.795 -144.102 935.795 -151.102"/><text x="923" y="-151.402" font-family="Courier New" font-size="14" text-anchor="middle">ε</text></g><g id="node3" class="node"><title>BlockEndState</title><g id="a_node3"><a target="_parent" xlink:href="../BlockEndState.html" xlink:title="\N"><polygon fill="none" stroke="#000" points="514 -137.602 514 -173.602 638 -173.602 638 -137.602 514 -137.602"/><text x="576" y="-151.902" font-family="Courier New" font-size="14" text-anchor="middle">BlockEndState</text></a></g></g><g id="edge9" class="edge"><title>BlockEndState-&gt;PlusLoopbackState</title><path fill="none" stroke="#000" d="M638.037,-149.897C649.443,-148.831 661.708,-147.685 674.153,-146.522"/><polygon fill="#000" stroke="#000" points="674.528 -150.002 684.159 -145.587 673.876 -143.033 674.528 -150.002"/><text x="661" y="-152.402" font-family="Courier New" font-size="14" text-anchor="middle">ε</text></g><g id="node9" class="node"><title>end</title><ellipse cx="1135" cy="-147.602" fill="none" stroke="#000" stroke-dasharray="5 2" rx="27" ry="18"/><text x="1135" y="-143.902" font-family="Courier New" font-size="14" text-anchor="middle">end</text></g><g id="edge2" class="edge"><title>LoopEndState-&gt;end</title><path fill="none" stroke="#000" d="M1062.33,-147.602C1074.37,-147.602 1086.74,-147.602 1097.74,-147.602"/><polygon fill="#000" stroke="#000" points="1097.82 -151.102 1107.82 -147.602 1097.82 -144.102 1097.82 -151.102"/><text x="1085" y="-151.402" font-family="Courier New" font-size="14" text-anchor="middle">ε</text></g><g id="edge4" class="edge"><title>content1-&gt;BlockEndState</title><path fill="none" stroke="#000" stroke-dasharray="5 2" d="M455.428,-221.2C476.653,-209.556 507.862,-192.435 533.073,-178.603"/><polygon fill="#000" stroke="#000" points="534.977 -181.551 542.061 -173.672 531.61 -175.414 534.977 -181.551"/></g><g id="edge6" class="edge"><title>content2-&gt;BlockEndState</title><path fill="none" stroke="#000" stroke-dasharray="5 2" d="M465.858,-174.55C477.333,-172.558 490.542,-170.265 503.718,-167.977"/><polygon fill="#000" stroke="#000" points="504.504 -171.393 513.758 -166.234 503.307 -164.496 504.504 -171.393"/></g><g id="edge8" class="edge"><title>more-&gt;BlockEndState</title><path fill="none" stroke="#000" stroke-dasharray="5 2" d="M465.126,-133.474C476.838,-135.833 490.419,-138.568 503.955,-141.294"/><polygon fill="#000" stroke="#000" points="503.282 -144.729 513.776 -143.272 504.664 -137.866 503.282 -144.729"/></g><g id="node8" class="node"><title>begin</title><ellipse cx="38" cy="-164.602" fill="none" stroke="#000" stroke-dasharray="5 2" rx="37.894" ry="18"/><text x="38" y="-160.902" font-family="Courier New" font-size="14" text-anchor="middle">begin</text></g><g id="edge1" class="edge"><title>begin-&gt;PlusBlockStartState</title><path fill="none" stroke="#000" stroke-dasharray="5 2" d="M76.085,-164.602C84.5896,-164.602 94.0955,-164.602 104.094,-164.602"/><polygon fill="#000" stroke="#000" points="104.237 -168.102 114.237 -164.602 104.237 -161.102 104.237 -168.102"/></g></g></svg>