<svg xmlns="http://www.w3.org/2000/svg" xmlns:xlink="http://www.w3.org/1999/xlink" width="1198pt" height="235pt" viewBox="0 0 1198 235"><g id="graph0" class="graph" transform="scale(1 1) rotate(0) translate(18 217)"><polygon fill="#fff" stroke="none" points="-18 18 -18 -217 1180 -217 1180 18 -18 18"/><g id="clust1" class="cluster"><title>cluster0</title><polygon fill="none" stroke="none" points="106 -8 106 -188 1070 -188 1070 -8 106 -8"/></g><g id="node1" class="node"><title>PlusBlockStartState</title><g id="a_node1"><a target="_parent" xlink:href="../PlusBlockStartState.html" xlink:title="{PlusBlockStartState | {&lt;alt1&gt; alt 1 |&lt;alt2&gt; alt 2 | ·\n·\n· |&lt;altn&gt; alt n}}"><polygon fill="none" stroke="#000" points="114.5 -26 114.5 -148 345.5 -148 345.5 -26 114.5 -26"/><text x="201" y="-83.3" font-family="Courier New" font-size="14" text-anchor="middle">PlusBlockStartState</text><polyline fill="none" stroke="#000" points="287.5 -26 287.5 -148"/><text x="316.5" y="-132.8" font-family="Courier New" font-size="14" text-anchor="middle">alt 1</text><polyline fill="none" stroke="#000" points="287.5 -125 345.5 -125"/><text x="316.5" y="-109.8" font-family="Courier New" font-size="14" text-anchor="middle">alt 2</text><polyline fill="none" stroke="#000" points="287.5 -102 345.5 -102"/><text x="316.5" y="-86.8" font-family="Courier New" font-size="14" text-anchor="middle">·</text><text x="316.5" y="-71.8" font-family="Courier New" font-size="14" text-anchor="middle">·</text><text x="316.5" y="-56.8" font-family="Courier New" font-size="14" text-anchor="middle">·</text><polyline fill="none" stroke="#000" points="287.5 -49 345.5 -49"/><text x="316.5" y="-33.8" font-family="Courier New" font-size="14" text-anchor="middle">alt n</text></a></g></g><g id="node5" class="node"><title>content1</title><ellipse cx="430" cy="-142" fill="none" stroke="#000" stroke-dasharray="5 2" rx="37.894" ry="18"/><text x="430" y="-138.3" font-family="Courier New" font-size="14" text-anchor="middle">alt 1</text></g><g id="edge3" class="edge"><title>PlusBlockStartState:alt1-&gt;content1</title><path fill="none" stroke="#000" d="M346,-137C357.835,-137 370.602,-137.513 382.491,-138.21"/><polygon fill="#000" stroke="#000" points="382.463 -141.715 392.667 -138.862 382.911 -134.73 382.463 -141.715"/><text x="369" y="-140.8" font-family="Courier New" font-size="14" text-anchor="middle">ε</text></g><g id="node6" class="node"><title>content2</title><ellipse cx="430" cy="-88" fill="none" stroke="#000" stroke-dasharray="5 2" rx="37.894" ry="18"/><text x="430" y="-84.3" font-family="Courier New" font-size="14" text-anchor="middle">alt 2</text></g><g id="edge5" class="edge"><title>PlusBlockStartState:alt2-&gt;content2</title><path fill="none" stroke="#000" d="M346,-114C355.152,-114 355.482,-107.345 364,-104 370.541,-101.431 377.619,-99.1831 384.614,-97.2477"/><polygon fill="#000" stroke="#000" points="385.926 -100.524 394.733 -94.635 384.176 -93.746 385.926 -100.524"/><text x="369" y="-107.8" font-family="Courier New" font-size="14" text-anchor="middle">ε</text></g><g id="node7" class="node"><title>more</title><ellipse cx="430" cy="-34" fill="none" stroke="#000" stroke-dasharray="5 2" rx="37.894" ry="18"/><text x="430" y="-30.3" font-family="Courier New" font-size="14" text-anchor="middle">alt n</text></g><g id="edge7" class="edge"><title>PlusBlockStartState:altn-&gt;more</title><path fill="none" stroke="#000" d="M346,-37C357.71,-37 370.343,-36.6981 382.135,-36.2858"/><polygon fill="#000" stroke="#000" points="382.378 -39.779 392.237 -35.9 382.111 -32.784 382.378 -39.779"/><text x="369" y="-40.8" font-family="Courier New" font-size="14" text-anchor="middle">ε</text></g><g id="node2" class="node"><title>PlusLoopbackState</title><g id="a_node2"><a target="_parent" xlink:href="../PlusLoopbackState.html" xlink:title="{PlusLoopbackState | {&lt;alt1&gt; alt 1 |&lt;alt2&gt; alt 2}}"><polygon fill="none" stroke="#000" points="684.5 -107 684.5 -153 899.5 -153 899.5 -107 684.5 -107"/><text x="763" y="-126.3" font-family="Courier New" font-size="14" text-anchor="middle">PlusLoopbackState</text><polyline fill="none" stroke="#000" points="841.5 -107 841.5 -153"/><text x="870.5" y="-137.8" font-family="Courier New" font-size="14" text-anchor="middle">alt 1</text><polyline fill="none" stroke="#000" points="841.5 -130 899.5 -130"/><text x="870.5" y="-114.8" font-family="Courier New" font-size="14" text-anchor="middle">alt 2</text></a></g></g><g id="edge10" class="edge"><title>PlusLoopbackState:alt1:n-&gt;PlusBlockStartState:n</title><path fill="none" stroke="#000" d="M871,-154C871,-170.87 293.449,-211.039 234.791,-158.283"/><polygon fill="#000" stroke="#000" points="237.697 -156.281 230 -149 231.476 -159.491 237.697 -156.281"/><text x="491" y="-187.8" font-family="Courier New" font-size="14" text-anchor="middle">ε</text></g><g id="node4" class="node"><title>LoopEndState</title><g id="a_node4"><a target="_parent" xlink:href="../LoopEndState.html" xlink:title="\N"><polygon fill="none" stroke="#000" points="946 -100 946 -136 1062 -136 1062 -100 946 -100"/><text x="1004" y="-114.3" font-family="Courier New" font-size="14" text-anchor="middle">LoopEndState</text></a></g></g><g id="edge11" class="edge"><title>PlusLoopbackState:alt2-&gt;LoopEndState</title><path fill="none" stroke="#000" d="M900,-118C911.479,-118 923.678,-118 935.514,-118"/><polygon fill="#000" stroke="#000" points="935.795 -121.5 945.795 -118 935.795 -114.5 935.795 -121.5"/><text x="923" y="-121.8" font-family="Courier New" font-size="14" text-anchor="middle">ε</text></g><g id="node3" class="node"><title>BlockEndState</title><g id="a_node3"><a target="_parent" xlink:href="../BlockEndState.html" xlink:title="\N"><polygon fill="none" stroke="#000" points="514 -99 514 -135 638 -135 638 -99 514 -99"/><text x="576" y="-113.3" font-family="Courier New" font-size="14" text-anchor="middle">BlockEndState</text></a></g></g><g id="edge9" class="edge"><title>BlockEndState-&gt;PlusLoopbackState</title><path fill="none" stroke="#000" d="M638.037,-120.708C649.443,-121.401 661.708,-122.146 674.153,-122.902"/><polygon fill="#000" stroke="#000" points="673.965 -126.397 684.159 -123.51 674.389 -119.41 673.965 -126.397"/><text x="661" y="-126.8" font-family="Courier New" font-size="14" text-anchor="middle">ε</text></g><g id="node9" class="node"><title>end</title><ellipse cx="1135" cy="-118" fill="none" stroke="#000" stroke-dasharray="5 2" rx="27" ry="18"/><text x="1135" y="-114.3" font-family="Courier New" font-size="14" text-anchor="middle">end</text></g><g id="edge2" class="edge"><title>LoopEndState-&gt;end</title><path fill="none" stroke="#000" d="M1062.33,-118C1074.37,-118 1086.74,-118 1097.74,-118"/><polygon fill="#000" stroke="#000" points="1097.82 -121.5 1107.82 -118 1097.82 -114.5 1097.82 -121.5"/><text x="1085" y="-121.8" font-family="Courier New" font-size="14" text-anchor="middle">ε</text></g><g id="edge4" class="edge"><title>content1-&gt;BlockEndState</title><path fill="none" stroke="#000" stroke-dasharray="5 2" d="M465.858,-135.948C477.333,-133.956 490.542,-131.663 503.718,-129.375"/><polygon fill="#000" stroke="#000" points="504.504 -132.791 513.758 -127.632 503.307 -125.894 504.504 -132.791"/></g><g id="edge6" class="edge"><title>content2-&gt;BlockEndState</title><path fill="none" stroke="#000" stroke-dasharray="5 2" d="M465.126,-94.8726C476.838,-97.2313 490.419,-99.9663 503.955,-102.692"/><polygon fill="#000" stroke="#000" points="503.282 -106.127 513.776 -104.67 504.664 -99.265 503.282 -106.127"/></g><g id="edge8" class="edge"><title>more-&gt;BlockEndState</title><path fill="none" stroke="#000" stroke-dasharray="5 2" d="M454.779,-47.7058C476.502,-60.2267 509.063,-78.9949 534.822,-93.8421"/><polygon fill="#000" stroke="#000" points="533.209 -96.952 543.621 -98.913 536.705 -90.887 533.209 -96.952"/></g><g id="node8" class="node"><title>begin</title><ellipse cx="38" cy="-87" fill="none" stroke="#000" stroke-dasharray="5 2" rx="37.894" ry="18"/><text x="38" y="-83.3" font-family="Courier New" font-size="14" text-anchor="middle">begin</text></g><g id="edge1" class="edge"><title>begin-&gt;PlusBlockStartState</title><path fill="none" stroke="#000" stroke-dasharray="5 2" d="M76.085,-87C84.5896,-87 94.0955,-87 104.094,-87"/><polygon fill="#000" stroke="#000" points="104.237 -90.5 114.237 -87 104.237 -83.5 104.237 -90.5"/></g></g></svg>