<svg xmlns="http://www.w3.org/2000/svg" xmlns:xlink="http://www.w3.org/1999/xlink" width="472pt" height="96" viewBox="0 0 472 72"><g id="graph0" class="graph" transform="scale(1 1) rotate(0) translate(18 54)"><polygon fill="#fff" stroke="none" points="-18 18 -18 -54 454 -54 454 18 -18 18"/><g id="node1" class="node"><title>RuleStartState</title><g id="a_node1"><a target="_parent" xlink:href="../RuleStartState.html" xlink:title="RuleStartState"><polygon fill="none" stroke="#000" points="132 -36 0 -36 0 0 132 0 132 -36"/><text x="66" y="-14.3" font-family="Courier New" font-size="14" text-anchor="middle">RuleStartState</text></a></g></g><g id="node3" class="node"><title>content</title><ellipse cx="226" cy="-18" fill="none" stroke="#000" stroke-dasharray="5 2" rx="48.192" ry="18"/><text x="226" y="-14.3" font-family="Courier New" font-size="14" text-anchor="middle">content</text></g><g id="edge1" class="edge"><title>RuleStartState-&gt;content</title><path fill="none" stroke="#000" d="M132.177,-18C143.892,-18 156.025,-18 167.503,-18"/><polygon fill="#000" stroke="#000" points="167.829 -21.5 177.829 -18 167.829 -14.5 167.829 -21.5"/><text x="155" y="-21.8" font-family="Courier New" font-size="14" text-anchor="middle">ε</text></g><g id="node2" class="node"><title>RuleStopState</title><g id="a_node2"><a target="_parent" xlink:href="../RuleStopState.html" xlink:title="RuleStopState"><polygon fill="none" stroke="#000" points="436 -36 312 -36 312 0 436 0 436 -36"/><text x="374" y="-14.3" font-family="Courier New" font-size="14" text-anchor="middle">RuleStopState</text></a></g></g><g id="edge2" class="edge"><title>content-&gt;RuleStopState</title><path fill="none" stroke="#000" stroke-dasharray="5 2" d="M274.402,-18C283.207,-18 292.581,-18 301.914,-18"/><polygon fill="#000" stroke="#000" points="301.995 -21.5 311.995 -18 301.995 -14.5 301.995 -21.5"/></g></g></svg>