<svg xmlns="http://www.w3.org/2000/svg" xmlns:xlink="http://www.w3.org/1999/xlink" width="406pt" height="197pt" viewBox="0 0 405.83 196.67"><g id="graph0" class="graph" transform="scale(0.833333 0.833333) rotate(0) translate(4 232)"><polygon fill="#fff" stroke="none" points="-4 4 -4 -232 483 -232 483 4 -4 4"/><g id="clust6" class="cluster"><title>clusterRes</title><polygon fill="none" stroke="none" points="329 -8 329 -220 471 -220 471 -8 329 -8"/></g><g id="node1" class="node"><title>lefttree</title></g><g id="node2" class="node"><title>left</title><polygon fill="none" stroke="#000" points="29 -91 58.348 -125.5 -.348 -125.5 29 -91"/><text x="29" y="-110.3" font-family="Times New Roman,serif" font-size="14" text-anchor="middle">x</text></g><g id="edge1" class="edge"><title>lefttree-&gt;left</title></g><g id="node3" class="node"><title>leftroot</title><text x="29" y="-30.3" font-family="Times New Roman,serif" font-size="14" text-anchor="middle">a</text></g><g id="edge2" class="edge"><title>left-&gt;leftroot</title><path fill="none" stroke="#000" d="M29,-80.6325C29,-70.8943 29,-60.5876 29,-52.2382"/><polygon fill="#000" stroke="#000" points="25.5 -80.857 29 -90.857 32.5 -80.857 25.5 -80.857"/></g><g id="node4" class="node"><title>optree</title></g><g id="node5" class="node"><title>temp1</title><text x="104" y="-110.3" font-family="Times New Roman,serif" font-size="14" text-anchor="middle">+</text></g><g id="edge3" class="edge"><title>optree-&gt;temp1</title></g><g id="node6" class="node"><title>righttree</title></g><g id="node7" class="node"><title>right</title><polygon fill="none" stroke="#000" points="179 -91 208.348 -125.5 149.652 -125.5 179 -91"/><text x="179" y="-110.3" font-family="Times New Roman,serif" font-size="14" text-anchor="middle">y</text></g><g id="edge4" class="edge"><title>righttree-&gt;right</title></g><g id="node8" class="node"><title>rightroot</title><text x="179" y="-30.3" font-family="Times New Roman,serif" font-size="14" text-anchor="middle">a</text></g><g id="edge5" class="edge"><title>right-&gt;rightroot</title><path fill="none" stroke="#000" d="M179,-80.6325C179,-70.8943 179,-60.5876 179,-52.2382"/><polygon fill="#000" stroke="#000" points="175.5 -80.857 179 -90.857 182.5 -80.857 175.5 -80.857"/></g><g id="node9" class="node"><title>temp2a</title><ellipse cx="255" cy="-194" fill="none" stroke="none" rx="1.8" ry="1.8"/></g><g id="node10" class="node"><title>temp2b</title><ellipse cx="229" cy="-114" fill="none" stroke="none" rx="1.8" ry="1.8"/></g><g id="edge6" class="edge"><title>temp2a-&gt;temp2b</title></g><g id="node11" class="node"><title>temp2c</title><ellipse cx="319" cy="-114" fill="none" stroke="none" rx="1.8" ry="1.8"/></g><g id="edge7" class="edge"><title>temp2a-&gt;temp2c</title></g><g id="edge8" class="edge"><title>temp2b-&gt;temp2c</title><path fill="none" stroke="#000" d="M230.88,-114C240.579,-114 285.352,-114 307.091,-114"/><polygon fill="#000" stroke="#000" points="307.131 -117.5 317.131 -114 307.131 -110.5 307.131 -117.5"/><text x="273.6" y="-120.8" fill="#fffffe" font-family="Times New Roman,serif" font-size="14" text-anchor="middle">wwwwwww</text></g><g id="node12" class="node"><title>resulttree1</title><polygon fill="none" stroke="#000" points="364 -176 391 -203 337 -203 364 -176"/></g><g id="node14" class="node"><title>result</title><polygon fill="none" stroke="#000" points="378 -91 378 -137 432 -137 432 -91 378 -91"/><polyline fill="none" stroke="#000" points="378 -114 405 -114"/><text x="391.5" y="-98.8" font-family="Times New Roman,serif" font-size="14" text-anchor="middle">x</text><polyline fill="none" stroke="#000" points="405 -91 405 -137"/><polyline fill="none" stroke="#000" points="405 -114 432 -114"/><text x="418.5" y="-98.8" font-family="Times New Roman,serif" font-size="14" text-anchor="middle">y</text></g><g id="edge9" class="edge"><title>resulttree1:s-&gt;result:x:n</title><path fill="none" stroke="#000" d="M366.688,-166.265C373.517,-155.703 391,-154.671 391,-138"/><polygon fill="#000" stroke="#000" points="363.287 -165.429 364 -176 370.035 -167.292 363.287 -165.429"/></g><g id="node13" class="node"><title>resulttree2</title><polygon fill="none" stroke="#000" points="436 -176 463 -203 409 -203 436 -176"/></g><g id="edge10" class="edge"><title>resulttree2:s-&gt;result:y:n</title><path fill="none" stroke="#000" d="M433.915,-166.005C429.376,-156.225 419,-152.455 419,-138"/><polygon fill="#000" stroke="#000" points="430.532 -166.925 436 -176 437.385 -165.496 430.532 -166.925"/></g><g id="node15" class="node"><title>resultroot</title><text x="405" y="-30.3" font-family="Times New Roman,serif" font-size="14" text-anchor="middle">a&apos;</text></g><g id="edge11" class="edge"><title>result-&gt;resultroot</title><path fill="none" stroke="#000" d="M405,-80.6325C405,-70.8943 405,-60.5876 405,-52.2382"/><polygon fill="#000" stroke="#000" points="401.5 -80.857 405 -90.857 408.5 -80.857 401.5 -80.857"/></g></g></svg>