<svg xmlns="http://www.w3.org/2000/svg" xmlns:xlink="http://www.w3.org/1999/xlink" width="353pt" height="143pt" viewBox="0 0 352.5 143.33"><g id="graph0" class="graph" transform="scale(0.833333 0.833333) rotate(0) translate(4 168)"><polygon fill="#fff" stroke="none" points="-4 4 -4 -168 419 -168 419 4 -4 4"/><g id="clust5" class="cluster"><title>clusterRes</title><polygon fill="none" stroke="none" points="331 -8 331 -156 407 -156 407 -8 331 -8"/></g><g id="node1" class="node"><title>left</title><polygon fill="none" stroke="#000" points="29 -102 58.348 -136.5 -.348 -136.5 29 -102"/><text x="29" y="-121.3" font-family="Times New Roman,serif" font-size="14" text-anchor="middle">x</text></g><g id="node2" class="node"><title>leftroot</title><text x="29" y="-36.3" font-family="Times New Roman,serif" font-size="14" text-anchor="middle">a</text></g><g id="edge1" class="edge"><title>left-&gt;leftroot</title><path fill="none" stroke="#000" d="M29,-91.6126C29,-80.1507 29,-67.7131 29,-58.0358"/><polygon fill="#000" stroke="#000" points="25.5 -91.757 29 -101.758 32.5 -91.758 25.5 -91.757"/></g><g id="node3" class="node"><title>temp1</title><text x="104" y="-121.3" font-family="Times New Roman,serif" font-size="14" text-anchor="middle">+</text></g><g id="node4" class="node"><title>right</title><polygon fill="none" stroke="#000" points="179 -102 208.348 -136.5 149.652 -136.5 179 -102"/><text x="179" y="-121.3" font-family="Times New Roman,serif" font-size="14" text-anchor="middle">x</text></g><g id="node5" class="node"><title>rightroot</title><text x="179" y="-36.3" font-family="Times New Roman,serif" font-size="14" text-anchor="middle">b</text></g><g id="edge2" class="edge"><title>right-&gt;rightroot</title><path fill="none" stroke="#000" d="M179,-91.6126C179,-80.1507 179,-67.7131 179,-58.0358"/><polygon fill="#000" stroke="#000" points="175.5 -91.757 179 -101.758 182.5 -91.758 175.5 -91.757"/></g><g id="node6" class="node"><title>temp2b</title><ellipse cx="229" cy="-125" fill="none" stroke="none" rx="1.8" ry="1.8"/></g><g id="node7" class="node"><title>temp2c</title><ellipse cx="319" cy="-125" fill="none" stroke="none" rx="1.8" ry="1.8"/></g><g id="edge3" class="edge"><title>temp2b-&gt;temp2c</title><path fill="none" stroke="#000" d="M230.88,-125C240.579,-125 285.352,-125 307.091,-125"/><polygon fill="#000" stroke="#000" points="307.131 -128.5 317.131 -125 307.131 -121.5 307.131 -128.5"/><text x="273.6" y="-131.8" fill="#fffffe" font-family="Times New Roman,serif" font-size="14" text-anchor="middle">wwwwwww</text></g><g id="node8" class="node"><title>resulttree</title><polygon fill="none" stroke="#000" points="369 -102 398.348 -136.5 339.652 -136.5 369 -102"/><text x="369" y="-121.3" font-family="Times New Roman,serif" font-size="14" text-anchor="middle">x</text></g><g id="node9" class="node"><title>result</title><polygon fill="none" stroke="#000" points="342 -17 342 -63 396 -63 396 -17 342 -17"/><polyline fill="none" stroke="#000" points="342 -40 368 -40"/><text x="355" y="-24.8" font-family="Times New Roman,serif" font-size="14" text-anchor="middle">a</text><polyline fill="none" stroke="#000" points="368 -17 368 -63"/><polyline fill="none" stroke="#000" points="368 -40 396 -40"/><text x="382" y="-24.8" font-family="Times New Roman,serif" font-size="14" text-anchor="middle">b</text></g><g id="edge4" class="edge"><title>resulttree-&gt;result:a:n</title><path fill="none" stroke="#000" d="M360.373,-98.6092C357.492,-88.0359 355,-75.5522 355,-64"/><polygon fill="#000" stroke="#000" points="357.093 -99.858 363.306 -108.44 363.801 -97.857 357.093 -99.858"/></g><g id="edge5" class="edge"><title>resulttree-&gt;result:b:n</title><path fill="none" stroke="#000" d="M377.067,-98.3472C379.718,-87.8151 382,-75.4311 382,-64"/><polygon fill="#000" stroke="#000" points="373.646 -97.588 374.363 -108.158 380.394 -99.448 373.646 -97.588"/></g></g></svg>