<svg xmlns="http://www.w3.org/2000/svg" xmlns:xlink="http://www.w3.org/1999/xlink" width="353pt" height="133pt" viewBox="0 0 352.5 133.33"><g id="graph0" class="graph" transform="scale(0.833333 0.833333) rotate(0) translate(4 156)"><polygon fill="#fff" stroke="none" points="-4 4 -4 -156 419 -156 419 4 -4 4"/><g id="clust5" class="cluster"><title>clusterRes</title><polygon fill="none" stroke="none" points="331 -8 331 -144 407 -144 407 -8 331 -8"/></g><g id="node1" class="node"><title>left</title><polygon fill="none" stroke="#000" points="29 -90 58.348 -124.5 -.348 -124.5 29 -90"/><text x="29" y="-109.3" font-family="Times New Roman,serif" font-size="14" text-anchor="middle">x</text></g><g id="node2" class="node"><title>leftroot</title><text x="29" y="-30.3" font-family="Times New Roman,serif" font-size="14" text-anchor="middle">a</text></g><g id="edge1" class="edge"><title>left-&gt;leftroot</title><path fill="none" stroke="#000" d="M29,-79.5165C29,-70.1825 29,-60.3647 29,-52.3313"/><polygon fill="#000" stroke="#000" points="25.5 -79.728 29 -89.728 32.5 -79.728 25.5 -79.728"/></g><g id="node3" class="node"><title>temp1</title><text x="104" y="-109.3" font-family="Times New Roman,serif" font-size="14" text-anchor="middle">+</text></g><g id="node4" class="node"><title>right</title><polygon fill="none" stroke="#000" points="179 -90 208.348 -124.5 149.652 -124.5 179 -90"/><text x="179" y="-109.3" font-family="Times New Roman,serif" font-size="14" text-anchor="middle">x</text></g><g id="node5" class="node"><title>rightroot</title><text x="179" y="-30.3" font-family="Times New Roman,serif" font-size="14" text-anchor="middle">a</text></g><g id="edge2" class="edge"><title>right-&gt;rightroot</title><path fill="none" stroke="#000" d="M179,-79.5165C179,-70.1825 179,-60.3647 179,-52.3313"/><polygon fill="#000" stroke="#000" points="175.5 -79.728 179 -89.728 182.5 -79.728 175.5 -79.728"/></g><g id="node6" class="node"><title>temp2b</title><ellipse cx="229" cy="-113" fill="none" stroke="none" rx="1.8" ry="1.8"/></g><g id="node7" class="node"><title>temp2c</title><ellipse cx="319" cy="-113" fill="none" stroke="none" rx="1.8" ry="1.8"/></g><g id="edge3" class="edge"><title>temp2b-&gt;temp2c</title><path fill="none" stroke="#000" d="M230.88,-113C240.579,-113 285.352,-113 307.091,-113"/><polygon fill="#000" stroke="#000" points="307.131 -116.5 317.131 -113 307.131 -109.5 307.131 -116.5"/><text x="273.6" y="-119.8" fill="#fffffe" font-family="Times New Roman,serif" font-size="14" text-anchor="middle">wwwwwww</text></g><g id="node8" class="node"><title>result</title><polygon fill="none" stroke="#000" points="369 -90 398.348 -124.5 339.652 -124.5 369 -90"/><text x="369" y="-109.3" font-family="Times New Roman,serif" font-size="14" text-anchor="middle">x</text></g><g id="node9" class="node"><title>resultroot</title><text x="369" y="-30.3" font-family="Times New Roman,serif" font-size="14" text-anchor="middle">a</text></g><g id="edge4" class="edge"><title>result-&gt;resultroot</title><path fill="none" stroke="#000" d="M369,-79.5165C369,-70.1825 369,-60.3647 369,-52.3313"/><polygon fill="#000" stroke="#000" points="365.5 -79.728 369 -89.728 372.5 -79.728 365.5 -79.728"/></g></g></svg>