<svg xmlns="http://www.w3.org/2000/svg" xmlns:xlink="http://www.w3.org/1999/xlink" width="418pt" height="143pt" viewBox="0 0 417.5 143.33"><g id="graph0" class="graph" transform="scale(0.833333 0.833333) rotate(0) translate(4 168)"><polygon fill="#fff" stroke="none" points="-4 4 -4 -168 497 -168 497 4 -4 4"/><g id="clust5" class="cluster"><title>clusterRes</title><polygon fill="none" stroke="none" points="331 -8 331 -156 485 -156 485 -8 331 -8"/></g><g id="node1" class="node"><title>left</title><polygon fill="none" stroke="#000" points="29 -102 58.348 -136.5 -.348 -136.5 29 -102"/><text x="29" y="-121.3" font-family="Times New Roman,serif" font-size="14" text-anchor="middle">x</text></g><g id="node2" class="node"><title>leftroot</title><text x="29" y="-36.3" font-family="Times New Roman,serif" font-size="14" text-anchor="middle">a</text></g><g id="edge1" class="edge"><title>left-&gt;leftroot</title><path fill="none" stroke="#000" d="M29,-91.6126C29,-80.1507 29,-67.7131 29,-58.0358"/><polygon fill="#000" stroke="#000" points="25.5 -91.757 29 -101.758 32.5 -91.758 25.5 -91.757"/></g><g id="node3" class="node"><title>temp1</title><text x="104" y="-121.3" font-family="Times New Roman,serif" font-size="14" text-anchor="middle">+</text></g><g id="node4" class="node"><title>right</title><polygon fill="none" stroke="#000" points="179 -102 208.348 -136.5 149.652 -136.5 179 -102"/><text x="179" y="-121.3" font-family="Times New Roman,serif" font-size="14" text-anchor="middle">y</text></g><g id="node5" class="node"><title>rightroot</title><text x="179" y="-36.3" font-family="Times New Roman,serif" font-size="14" text-anchor="middle">b</text></g><g id="edge2" class="edge"><title>right-&gt;rightroot</title><path fill="none" stroke="#000" d="M179,-91.6126C179,-80.1507 179,-67.7131 179,-58.0358"/><polygon fill="#000" stroke="#000" points="175.5 -91.757 179 -101.758 182.5 -91.758 175.5 -91.757"/></g><g id="node6" class="node"><title>temp2b</title><ellipse cx="229" cy="-125" fill="none" stroke="none" rx="1.8" ry="1.8"/></g><g id="node7" class="node"><title>temp2c</title><ellipse cx="319" cy="-125" fill="none" stroke="none" rx="1.8" ry="1.8"/></g><g id="edge3" class="edge"><title>temp2b-&gt;temp2c</title><path fill="none" stroke="#000" d="M230.88,-125C240.579,-125 285.352,-125 307.091,-125"/><polygon fill="#000" stroke="#000" points="307.131 -128.5 317.131 -125 307.131 -121.5 307.131 -128.5"/><text x="273.6" y="-131.8" fill="#fffffe" font-family="Times New Roman,serif" font-size="14" text-anchor="middle">wwwwwww</text></g><g id="node8" class="node"><title>resulttree1</title><polygon fill="none" stroke="#000" points="369 -102 398.348 -136.5 339.652 -136.5 369 -102"/><text x="369" y="-121.3" font-family="Times New Roman,serif" font-size="14" text-anchor="middle">x</text></g><g id="node10" class="node"><title>result</title><polygon fill="none" stroke="#000" points="387 -17 387 -63 441 -63 441 -17 387 -17"/><polyline fill="none" stroke="#000" points="387 -40 413 -40"/><text x="400" y="-24.8" font-family="Times New Roman,serif" font-size="14" text-anchor="middle">a</text><polyline fill="none" stroke="#000" points="413 -17 413 -63"/><polyline fill="none" stroke="#000" points="413 -40 441 -40"/><text x="427" y="-24.8" font-family="Times New Roman,serif" font-size="14" text-anchor="middle">b</text></g><g id="edge4" class="edge"><title>resulttree1:s-&gt;result:a:n</title><path fill="none" stroke="#000" d="M371.861,-92.2673C379.535,-81.3382 400,-81.7092 400,-64"/><polygon fill="#000" stroke="#000" points="368.462 -91.419 369 -102 375.178 -93.393 368.462 -91.419"/></g><g id="node9" class="node"><title>resulttree2</title><polygon fill="none" stroke="#000" points="447 -102 476.348 -136.5 417.652 -136.5 447 -102"/><text x="447" y="-121.3" font-family="Times New Roman,serif" font-size="14" text-anchor="middle">y</text></g><g id="edge5" class="edge"><title>resulttree2:s-&gt;result:b:n</title><path fill="none" stroke="#000" d="M444.706,-92.1315C439.452,-82.1299 427,-79.0595 427,-64"/><polygon fill="#000" stroke="#000" points="441.326 -93.052 447 -102 448.145 -91.467 441.326 -93.052"/></g></g></svg>